<svg aria-hidden="true" style="width:0;height:0;position:absolute;overflow:hidden" xmlns="http://www.w3.org/2000/svg"><defs><symbol id="icon-cross" viewBox="0 0 18 18"><path d="M9 1a8 8 0 1 0 0 16A8 8 0 0 0 9 1zm0 14c-3.309 0-6-2.691-6-6s2.691-6 6-6 6 2.691 6 6-2.691 6-6 6z"/><path d="m11.722 6.292-.014-.014a.95.95 0 0 0-1.344 0L9 7.642 7.636 6.278a.95.95 0 0 0-1.344 0l-.014.014a.95.95 0 0 0 0 1.344L7.642 9l-1.364 1.364a.95.95 0 0 0 0 1.344l.014.014a.95.95 0 0 0 1.344 0L9 10.358l1.364 1.364a.95.95 0 0 0 1.344 0l.014-.014a.95.95 0 0 0 0-1.344L10.358 9l1.364-1.364a.95.95 0 0 0 0-1.344z"/></symbol></defs></svg>