<svg aria-hidden="true" style="width:0;height:0;position:absolute;overflow:hidden" xmlns="http://www.w3.org/2000/svg"><defs><symbol id="icon-logo" viewBox="0 0 78 32"><path stroke-linejoin="round" stroke-linecap="round" stroke-width="1.641" d="M9.026 9.613.821 17.818l8.205 8.205M25.436 9.613l8.205 8.205-8.205 8.205"/><path d="m20.131 3.553-7.046 26.294a.67.67 0 0 1-1.294-.346l7.046-26.294a.67.67 0 0 1 1.294.346z"/><path d="M18.837 3.206a.67.67 0 0 1 1.294.346l-.858 3.203-1.294-.347.858-3.203z"/><path stroke-linecap="round" stroke-width=".821" d="m21.083 5.177 2.588.693M14.613 3.443l2.588.693M16.12.409l1.344 2.305M14.43 6.715l2.316-1.324M20.739 6.46l1.344 2.305M21.456 3.784l2.316-1.324"/><path d="M45.141 11.782c-.683 0-1.3-.151-1.851-.453a3.375 3.375 0 0 1-1.29-1.25c-.309-.538-.463-1.139-.463-1.802s.154-1.26.463-1.792c.315-.538.748-.958 1.3-1.26s1.168-.453 1.851-.453c.512 0 .985.085 1.418.256s.801.42 1.103.748l-.463.463c-.538-.545-1.218-.817-2.038-.817-.545 0-1.04.125-1.487.374s-.798.591-1.054 1.024c-.249.433-.374.919-.374 1.457s.125 1.024.374 1.457c.256.433.607.775 1.054 1.024s.942.374 1.487.374c.827 0 1.506-.276 2.038-.827l.463.463a3.022 3.022 0 0 1-1.113.758 3.828 3.828 0 0 1-1.418.256zm5.823-.01c-.499 0-.949-.112-1.349-.335-.4-.23-.715-.545-.945-.945s-.345-.853-.345-1.359c0-.505.115-.958.345-1.359s.545-.712.945-.935c.4-.223.85-.335 1.349-.335s.949.112 1.349.335c.4.223.712.535.935.935.23.4.345.853.345 1.359s-.115.958-.345 1.359a2.44 2.44 0 0 1-.935.945c-.4.223-.85.335-1.349.335zm0-.62c.368 0 .696-.082.985-.246.295-.171.525-.41.689-.719s.246-.66.246-1.054-.082-.745-.246-1.054-.394-.545-.689-.709c-.289-.171-.617-.256-.985-.256s-.699.085-.994.256c-.289.164-.519.4-.689.709-.164.309-.246.66-.246 1.054s.082.745.246 1.054c.171.309.4.548.689.719.295.164.627.246.994.246zm8.782-6.735v7.306h-.67v-1.024c-.21.348-.489.614-.837.798a2.41 2.41 0 0 1-1.162.276c-.486 0-.926-.112-1.319-.335s-.702-.535-.926-.935c-.223-.4-.335-.857-.335-1.369s.112-.968.335-1.369c.223-.4.532-.709.926-.926a2.632 2.632 0 0 1 1.319-.335c.42 0 .798.089 1.132.266.341.171.62.423.837.758V4.417h.699zm-2.609 6.735c.361 0 .686-.082.975-.246.295-.171.525-.41.689-.719.171-.309.256-.66.256-1.054s-.085-.745-.256-1.054a1.707 1.707 0 0 0-.689-.709 1.878 1.878 0 0 0-.975-.256c-.368 0-.699.085-.994.256-.289.164-.519.4-.689.709-.164.309-.246.66-.246 1.054s.082.745.246 1.054c.171.309.4.548.689.719.295.164.627.246.994.246zm4.556-4.608h.699v5.179h-.699V6.544zm.354-1.133c-.144 0-.266-.049-.364-.148a.487.487 0 0 1 0-.699.494.494 0 0 1 .364-.148c.144 0 .266.049.364.148a.444.444 0 0 1 .148.335c0 .144-.049.266-.148.364s-.22.148-.364.148zm4.929 1.093c.65 0 1.165.19 1.546.571.387.374.581.922.581 1.644v3.003h-.699V8.788c0-.538-.135-.949-.404-1.231s-.653-.423-1.152-.423c-.558 0-1.001.167-1.329.502-.322.328-.482.784-.482 1.369v2.718h-.699V6.544h.67v.955a1.92 1.92 0 0 1 .788-.729 2.53 2.53 0 0 1 1.182-.266zm8.839.04v4.549c0 .88-.217 1.529-.65 1.95-.427.427-1.073.64-1.94.64a4.29 4.29 0 0 1-1.369-.217c-.427-.138-.775-.332-1.044-.581l.354-.532c.249.223.551.397.906.522.361.125.738.187 1.132.187.656 0 1.139-.154 1.447-.463.308-.302.463-.775.463-1.418v-.66a2.095 2.095 0 0 1-.857.748 2.598 2.598 0 0 1-1.162.256c-.486 0-.929-.105-1.329-.315a2.447 2.447 0 0 1-.935-.896c-.223-.387-.335-.824-.335-1.31s.112-.919.335-1.3c.23-.381.542-.676.935-.886s.837-.315 1.329-.315c.44 0 .837.089 1.191.266s.64.433.857.768v-.994h.67zm-2.649 4.361c.374 0 .712-.079 1.014-.236.302-.164.535-.391.699-.679.171-.289.256-.617.256-.985s-.085-.693-.256-.975a1.68 1.68 0 0 0-.699-.67 2.052 2.052 0 0 0-1.014-.246c-.374 0-.712.079-1.014.236a1.766 1.766 0 0 0-.699.67c-.164.289-.246.617-.246.985s.082.696.246.985c.171.289.404.515.699.679.302.158.64.236 1.014.236zM63.965 18.659c-.138.202-.292.444-.462.726a27.83 27.83 0 0 0-1.029 1.88 36.603 36.603 0 0 0-.851 1.904c-.122.295-.228.556-.317.784a27.086 27.086 0 0 0-.289.75c-.032.08-.09.12-.173.12a.176.176 0 0 1-.111-.038.195.195 0 0 1-.062-.106l-.048-.202a37.706 37.706 0 0 0-.12-.534l-.178-.769a59.523 59.523 0 0 0-.207-.909c-.07-.317-.143-.638-.216-.962s-.143-.631-.207-.923a18.455 18.455 0 0 1-.649 1.611c-.215.465-.436.87-.663 1.216a5.115 5.115 0 0 1-.707.865c-.24.234-.494.423-.76.567-.263.141-.54.242-.832.303a4.431 4.431 0 0 1-.918.091c-.167 0-.345-.019-.534-.058-.189-.035-.377-.091-.563-.168s-.364-.173-.534-.288a2.172 2.172 0 0 1-.452-.409 1.975 1.975 0 0 1-.313-.538 1.875 1.875 0 0 1-.115-.673c0-.26.054-.497.163-.712.109-.218.256-.404.442-.558.186-.157.401-.279.644-.365a2.35 2.35 0 0 1 .779-.13c.199 0 .377.018.534.053.16.032.301.074.423.125s.226.107.312.168.159.117.216.168a.728.728 0 0 1 .125.135c.026.035.04.053.043.053a.214.214 0 0 1 .029.101.182.182 0 0 1-.053.125.161.161 0 0 1-.13.058.18.18 0 0 1-.154-.082 4.716 4.716 0 0 1-.077-.087c-.048-.058-.127-.12-.236-.188s-.25-.128-.423-.183a2.082 2.082 0 0 0-.625-.082c-.224 0-.438.035-.639.106a1.475 1.475 0 0 0-.88.735c-.087.17-.13.357-.13.563 0 .202.034.386.101.553s.157.316.269.447c.112.131.242.245.389.341a2.599 2.599 0 0 0 1.405.422c.244 0 .481-.018.712-.053a2.68 2.68 0 0 0 .688-.212c.228-.103.45-.244.668-.423s.434-.413.649-.702c.215-.288.426-.636.635-1.043a13.922 13.922 0 0 0 .823-1.98c.061-.192.123-.386.188-.582a11.797 11.797 0 0 1-.12-.721 4.698 4.698 0 0 1-.034-.495c0-.141.011-.253.034-.337s.051-.146.086-.188a.213.213 0 0 1 .115-.082.335.335 0 0 1 .226 0 .22.22 0 0 1 .111.086c.035.042.064.104.087.188s.034.195.034.337c0 .154-.014.332-.043.534s-.072.425-.13.668l.144.654c.054.241.111.49.168.75l.178.788.178.788c.058.256.112.502.163.735l.149.635c.087-.218.192-.481.317-.788.125-.311.264-.639.418-.986.154-.349.316-.703.486-1.062.173-.362.349-.704.529-1.024a19.428 19.428 0 0 1 1.245-1.976 6.94 6.94 0 0 1 .505-.634.178.178 0 0 1 .13-.053.16.16 0 0 1 .13.058.172.172 0 0 1 .039.192 14.136 14.136 0 0 0-.577 1.765 8.721 8.721 0 0 0-.284 2.99c.019.214.051.422.096.62.045.199.106.386.183.562.077.173.171.325.284.457s.245.237.399.317c.157.08.338.123.543.13a.152.152 0 0 1 .12.067c.032.038.048.08.048.125s-.018.085-.053.12a.172.172 0 0 1-.125.053.89.89 0 0 1-.154-.014 1.723 1.723 0 0 1-.611-.197 1.819 1.819 0 0 1-.457-.375 2.183 2.183 0 0 1-.322-.51c-.083-.192-.151-.397-.202-.615s-.088-.444-.111-.678a8.962 8.962 0 0 1 .014-1.572 11.121 11.121 0 0 1 .283-1.62c.064-.253.13-.489.197-.707zm5.533 4.851-.082.163c-.038.08-.09.173-.154.279-.061.106-.133.216-.216.332s-.176.221-.279.317a1.59 1.59 0 0 1-.332.24.81.81 0 0 1-.375.091.666.666 0 0 1-.471-.178 1.052 1.052 0 0 1-.274-.447 1.447 1.447 0 0 1-.389.438.782.782 0 0 1-.452.159.794.794 0 0 1-.322-.063.733.733 0 0 1-.245-.183.93.93 0 0 1-.159-.279 1.096 1.096 0 0 1-.053-.346 1.535 1.535 0 0 1 .452-1.14c.132-.128.276-.224.433-.288.16-.064.314-.096.462-.096.099 0 .191.014.274.043a1.094 1.094 0 0 1 .351.178l.053.043a.202.202 0 0 1 .053.13.19.19 0 0 1-.053.13.172.172 0 0 1-.125.053.178.178 0 0 1-.13-.053.45.45 0 0 0-.043-.034c-.022-.019-.053-.038-.091-.058s-.085-.035-.139-.048a.599.599 0 0 0-.178-.024.879.879 0 0 0-.625.279 1.187 1.187 0 0 0-.236.356 1.266 1.266 0 0 0-.072.693c.013.061.035.117.067.168s.075.093.13.125a.392.392 0 0 0 .202.048.43.43 0 0 0 .197-.058.68.68 0 0 0 .216-.178 1.445 1.445 0 0 0 .308-.736.166.166 0 0 1 .063-.111.18.18 0 0 1 .125-.048.15.15 0 0 1 .115.053.19.19 0 0 1 .058.12c.003.061.01.147.019.26.01.109.03.218.063.327.035.109.086.203.154.284s.16.12.279.12a.452.452 0 0 0 .226-.063 1.04 1.04 0 0 0 .221-.163c.074-.071.143-.149.207-.236.067-.09.128-.18.183-.269s.103-.176.144-.26c.042-.083.077-.155.106-.216a.189.189 0 0 1 .067-.082.196.196 0 0 1 .101-.029c.054 0 .098.021.13.063.035.038.053.08.053.125a.179.179 0 0 1-.014.067zm1.409 1.812c.603-.785 1.021-1.437 1.255-1.957a.175.175 0 0 1 .062-.077.172.172 0 0 1 .096-.029c.054 0 .099.019.135.058a.172.172 0 0 1 .039.192c-.141.32-.341.678-.601 1.072s-.588.84-.986 1.337c0 .202.002.404.005.606s.005.423.005.663c0 .24-.006.478-.019.712-.01.237-.029.462-.058.673a4.22 4.22 0 0 1-.12.591c-.048.183-.112.34-.192.471a.892.892 0 0 1-.284.313.657.657 0 0 1-.389.115c-.215 0-.38-.082-.495-.245s-.173-.396-.173-.697c0-.16.014-.335.043-.524.032-.186.077-.378.135-.577s.127-.401.207-.606c.083-.202.175-.399.274-.591s.207-.377.322-.553c.119-.176.244-.337.375-.481.003-.224.005-.447.005-.668.003-.221.008-.425.014-.611a1.063 1.063 0 0 1-.346.288.833.833 0 0 1-.394.106.74.74 0 0 1-.308-.063.71.71 0 0 1-.231-.183c-.064-.08-.114-.173-.149-.279s-.053-.221-.053-.346a1.535 1.535 0 0 1 .452-1.14c.132-.128.276-.224.433-.288.16-.064.314-.096.462-.096.099 0 .191.013.274.038a1.096 1.096 0 0 1 .351.177l.053.048c.035.038.053.082.053.13s-.018.091-.053.13a.172.172 0 0 1-.125.053.202.202 0 0 1-.13-.053l-.053-.038a.483.483 0 0 0-.202-.106.593.593 0 0 0-.163-.019.877.877 0 0 0-.317.067c-.115.042-.223.109-.322.202s-.183.213-.25.361a1.237 1.237 0 0 0-.101.524c0 .154.034.279.101.375.067.093.171.14.313.14a.455.455 0 0 0 .212-.058c.077-.038.151-.098.221-.178s.131-.181.183-.303c.054-.122.093-.266.115-.433a.166.166 0 0 1 .063-.111.18.18 0 0 1 .125-.048c.054 0 .096.019.125.058a.197.197 0 0 1 .048.13l-.005.149-.01.375-.014.548-.01.654zm-.365 1.053a4.82 4.82 0 0 0-.409.678 6.334 6.334 0 0 0-.514 1.471 3.442 3.442 0 0 0-.067.635c0 .119.01.213.029.284a.528.528 0 0 0 .077.163.25.25 0 0 0 .101.077.33.33 0 0 0 .366-.101c.074-.08.136-.188.188-.322.051-.131.093-.284.125-.457s.056-.353.072-.538a11.188 11.188 0 0 0 .044-1.053v-.413c0-.137-.003-.279-.01-.423zm2.408-5.298a.426.426 0 0 1-.13.313c-.083.083-.186.125-.308.125s-.226-.042-.313-.125a.437.437 0 0 1-.125-.313c0-.061.011-.117.034-.168a.445.445 0 0 1 .23-.235.456.456 0 0 1 .341 0 .377.377 0 0 1 .139.096.42.42 0 0 1 .13.307zm-.779 2.817c0-.462.029-.921.087-1.38a.196.196 0 0 1 .058-.115.183.183 0 0 1 .135-.053c.048 0 .088.019.12.058a.18.18 0 0 1 .048.125c0 .019-.005.077-.014.173-.006.096-.016.212-.029.346-.01.131-.019.272-.029.423-.006.147-.01.284-.01.409 0 .17.016.308.048.413a.691.691 0 0 0 .13.24.412.412 0 0 0 .168.115.586.586 0 0 0 .173.029c.09 0 .183-.032.279-.096s.194-.154.293-.269c.103-.115.205-.253.308-.413.103-.164.204-.345.303-.543a.162.162 0 0 1 .067-.072.172.172 0 0 1 .096-.029c.051 0 .093.019.125.058.035.038.053.08.053.125a.163.163 0 0 1-.019.082c-.038.074-.087.163-.144.269s-.123.215-.197.327a5.013 5.013 0 0 1-.245.337 2.398 2.398 0 0 1-.279.298c-.099.086-.204.157-.313.212s-.219.082-.332.082c-.144 0-.271-.03-.38-.091s-.202-.143-.279-.245a1.123 1.123 0 0 1-.168-.361 1.873 1.873 0 0 1-.053-.452zm.51-2.817a.15.15 0 0 0-.053-.115.15.15 0 0 0-.23 0c-.032.032-.048.07-.048.115s.016.083.048.115.07.048.115.048.083-.016.115-.048a.15.15 0 0 0 .053-.115zm4.697 2.442-.101.192a2.473 2.473 0 0 1-.188.317c-.077.115-.17.236-.279.361s-.234.24-.375.346c-.141.103-.3.188-.476.255a1.557 1.557 0 0 1-.567.101 1.12 1.12 0 0 1-.486-.101 1.01 1.01 0 0 1-.361-.274c-.099-.122-.175-.264-.226-.428s-.077-.345-.077-.543c0-.192.027-.372.082-.538.054-.17.128-.317.221-.442.096-.125.207-.223.332-.293a.77.77 0 0 1 .687-.053.594.594 0 0 1 .216.144.647.647 0 0 1 .139.202.512.512 0 0 1 .053.221.66.66 0 0 1-.029.197.613.613 0 0 1-.067.163.404.404 0 0 1-.091.111.175.175 0 0 1-.106.038.186.186 0 0 1-.135-.053.187.187 0 0 1-.034-.197l.038-.058a.264.264 0 0 0 .038-.077.321.321 0 0 0 .019-.12c0-.067-.032-.128-.096-.183a.342.342 0 0 0-.236-.082.466.466 0 0 0-.26.082.775.775 0 0 0-.212.221c-.061.09-.111.197-.149.322a1.438 1.438 0 0 0-.005.764c.032.119.08.224.144.317a.73.73 0 0 0 .24.216.722.722 0 0 0 .351.082c.173 0 .333-.03.481-.091.147-.064.282-.144.404-.24s.229-.2.322-.312c.093-.115.171-.223.236-.322a2.462 2.462 0 0 0 .221-.408.14.14 0 0 1 .063-.072.196.196 0 0 1 .101-.029.16.16 0 0 1 .13.058.188.188 0 0 1 .053.13.218.218 0 0 1-.019.077z"/></symbol><symbol id="icon-search" viewBox="0 0 32 32"><path stroke-width="4" d="M24.087 13.043c0 6.099-4.944 11.043-11.043 11.043S2.001 19.142 2.001 13.043C2.001 6.944 6.945 2 13.044 2s11.043 4.944 11.043 11.043z"/><path d="M28.586 31.414a2 2 0 1 0 2.828-2.828l-2.828 2.828zm-5.65-11.306-1.414-1.414-2.828 2.828 1.414 1.414 2.828-2.828zm8.478 8.478-8.478-8.478-2.828 2.828 8.478 8.478 2.828-2.828z"/></symbol></defs></svg>