<svg aria-hidden="true" style="width:0;height:0;position:absolute;overflow:hidden" xmlns="http://www.w3.org/2000/svg"><defs><symbol id="icon-logo" viewBox="0 0 78 32"><path stroke-linejoin="round" stroke-linecap="round" stroke-width="1.641" d="M9.026 9.613.821 17.818l8.205 8.205M25.436 9.613l8.205 8.205-8.205 8.205"/><path d="m20.131 3.553-7.046 26.294a.67.67 0 0 1-1.294-.346l7.046-26.294a.67.67 0 0 1 1.294.346z"/><path d="M18.837 3.206a.67.67 0 0 1 1.294.346l-.858 3.203-1.294-.347.858-3.203z"/><path stroke-linecap="round" stroke-width=".821" d="m21.083 5.177 2.588.693M14.613 3.443l2.588.693M16.12.409l1.344 2.305M14.43 6.715l2.316-1.324M20.739 6.46l1.344 2.305M21.456 3.784l2.316-1.324"/><path d="M45.141 11.782c-.683 0-1.3-.151-1.851-.453a3.375 3.375 0 0 1-1.29-1.25c-.309-.538-.463-1.139-.463-1.802s.154-1.26.463-1.792c.315-.538.748-.958 1.3-1.26s1.168-.453 1.851-.453c.512 0 .985.085 1.418.256s.801.42 1.103.748l-.463.463c-.538-.545-1.218-.817-2.038-.817-.545 0-1.04.125-1.487.374s-.798.591-1.054 1.024c-.249.433-.374.919-.374 1.457s.125 1.024.374 1.457c.256.433.607.775 1.054 1.024s.942.374 1.487.374c.827 0 1.506-.276 2.038-.827l.463.463a3.022 3.022 0 0 1-1.113.758 3.828 3.828 0 0 1-1.418.256zm5.823-.01c-.499 0-.949-.112-1.349-.335-.4-.23-.715-.545-.945-.945s-.345-.853-.345-1.359c0-.505.115-.958.345-1.359s.545-.712.945-.935c.4-.223.85-.335 1.349-.335s.949.112 1.349.335c.4.223.712.535.935.935.23.4.345.853.345 1.359s-.115.958-.345 1.359a2.44 2.44 0 0 1-.935.945c-.4.223-.85.335-1.349.335zm0-.62c.368 0 .696-.082.985-.246.295-.171.525-.41.689-.719s.246-.66.246-1.054-.082-.745-.246-1.054-.394-.545-.689-.709c-.289-.171-.617-.256-.985-.256s-.699.085-.994.256c-.289.164-.519.4-.689.709-.164.309-.246.66-.246 1.054s.082.745.246 1.054c.171.309.4.548.689.719.295.164.627.246.994.246zm8.782-6.735v7.306h-.67v-1.024c-.21.348-.489.614-.837.798a2.41 2.41 0 0 1-1.162.276c-.486 0-.926-.112-1.319-.335s-.702-.535-.926-.935c-.223-.4-.335-.857-.335-1.369s.112-.968.335-1.369c.223-.4.532-.709.926-.926a2.632 2.632 0 0 1 1.319-.335c.42 0 .798.089 1.132.266.341.171.62.423.837.758V4.417h.699zm-2.609 6.735c.361 0 .686-.082.975-.246.295-.171.525-.41.689-.719.171-.309.256-.66.256-1.054s-.085-.745-.256-1.054a1.707 1.707 0 0 0-.689-.709 1.878 1.878 0 0 0-.975-.256c-.368 0-.699.085-.994.256-.289.164-.519.4-.689.709-.164.309-.246.66-.246 1.054s.082.745.246 1.054c.171.309.4.548.689.719.295.164.627.246.994.246zm4.556-4.608h.699v5.179h-.699V6.544zm.354-1.133c-.144 0-.266-.049-.364-.148a.487.487 0 0 1 0-.699.494.494 0 0 1 .364-.148c.144 0 .266.049.364.148a.444.444 0 0 1 .148.335c0 .144-.049.266-.148.364s-.22.148-.364.148zm4.929 1.093c.65 0 1.165.19 1.546.571.387.374.581.922.581 1.644v3.003h-.699V8.788c0-.538-.135-.949-.404-1.231s-.653-.423-1.152-.423c-.558 0-1.001.167-1.329.502-.322.328-.482.784-.482 1.369v2.718h-.699V6.544h.67v.955a1.92 1.92 0 0 1 .788-.729 2.53 2.53 0 0 1 1.182-.266zm8.839.04v4.549c0 .88-.217 1.529-.65 1.95-.427.427-1.073.64-1.94.64a4.29 4.29 0 0 1-1.369-.217c-.427-.138-.775-.332-1.044-.581l.354-.532c.249.223.551.397.906.522.361.125.738.187 1.132.187.656 0 1.139-.154 1.447-.463.308-.302.463-.775.463-1.418v-.66a2.095 2.095 0 0 1-.857.748 2.598 2.598 0 0 1-1.162.256c-.486 0-.929-.105-1.329-.315a2.447 2.447 0 0 1-.935-.896c-.223-.387-.335-.824-.335-1.31s.112-.919.335-1.3c.23-.381.542-.676.935-.886s.837-.315 1.329-.315c.44 0 .837.089 1.191.266s.64.433.857.768v-.994h.67zm-2.649 4.361c.374 0 .712-.079 1.014-.236.302-.164.535-.391.699-.679.171-.289.256-.617.256-.985s-.085-.693-.256-.975a1.68 1.68 0 0 0-.699-.67 2.052 2.052 0 0 0-1.014-.246c-.374 0-.712.079-1.014.236a1.766 1.766 0 0 0-.699.67c-.164.289-.246.617-.246.985s.082.696.246.985c.171.289.404.515.699.679.302.158.64.236 1.014.236zM63.965 18.659c-.138.202-.292.444-.462.726a27.83 27.83 0 0 0-1.029 1.88 36.603 36.603 0 0 0-.851 1.904c-.122.295-.228.556-.317.784a27.086 27.086 0 0 0-.289.75c-.032.08-.09.12-.173.12a.176.176 0 0 1-.111-.038.195.195 0 0 1-.062-.106l-.048-.202a37.706 37.706 0 0 0-.12-.534l-.178-.769a59.523 59.523 0 0 0-.207-.909c-.07-.317-.143-.638-.216-.962s-.143-.631-.207-.923a18.455 18.455 0 0 1-.649 1.611c-.215.465-.436.87-.663 1.216a5.115 5.115 0 0 1-.707.865c-.24.234-.494.423-.76.567-.263.141-.54.242-.832.303a4.431 4.431 0 0 1-.918.091c-.167 0-.345-.019-.534-.058-.189-.035-.377-.091-.563-.168s-.364-.173-.534-.288a2.172 2.172 0 0 1-.452-.409 1.975 1.975 0 0 1-.313-.538 1.875 1.875 0 0 1-.115-.673c0-.26.054-.497.163-.712.109-.218.256-.404.442-.558.186-.157.401-.279.644-.365a2.35 2.35 0 0 1 .779-.13c.199 0 .377.018.534.053.16.032.301.074.423.125s.226.107.312.168.159.117.216.168a.728.728 0 0 1 .125.135c.026.035.04.053.043.053a.214.214 0 0 1 .029.101.182.182 0 0 1-.053.125.161.161 0 0 1-.13.058.18.18 0 0 1-.154-.082 4.716 4.716 0 0 1-.077-.087c-.048-.058-.127-.12-.236-.188s-.25-.128-.423-.183a2.082 2.082 0 0 0-.625-.082c-.224 0-.438.035-.639.106a1.475 1.475 0 0 0-.88.735c-.087.17-.13.357-.13.563 0 .202.034.386.101.553s.157.316.269.447c.112.131.242.245.389.341a2.599 2.599 0 0 0 1.405.422c.244 0 .481-.018.712-.053a2.68 2.68 0 0 0 .688-.212c.228-.103.45-.244.668-.423s.434-.413.649-.702c.215-.288.426-.636.635-1.043a13.922 13.922 0 0 0 .823-1.98c.061-.192.123-.386.188-.582a11.797 11.797 0 0 1-.12-.721 4.698 4.698 0 0 1-.034-.495c0-.141.011-.253.034-.337s.051-.146.086-.188a.213.213 0 0 1 .115-.082.335.335 0 0 1 .226 0 .22.22 0 0 1 .111.086c.035.042.064.104.087.188s.034.195.034.337c0 .154-.014.332-.043.534s-.072.425-.13.668l.144.654c.054.241.111.49.168.75l.178.788.178.788c.058.256.112.502.163.735l.149.635c.087-.218.192-.481.317-.788.125-.311.264-.639.418-.986.154-.349.316-.703.486-1.062.173-.362.349-.704.529-1.024a19.428 19.428 0 0 1 1.245-1.976 6.94 6.94 0 0 1 .505-.634.178.178 0 0 1 .13-.053.16.16 0 0 1 .13.058.172.172 0 0 1 .039.192 14.136 14.136 0 0 0-.577 1.765 8.721 8.721 0 0 0-.284 2.99c.019.214.051.422.096.62.045.199.106.386.183.562.077.173.171.325.284.457s.245.237.399.317c.157.08.338.123.543.13a.152.152 0 0 1 .12.067c.032.038.048.08.048.125s-.018.085-.053.12a.172.172 0 0 1-.125.053.89.89 0 0 1-.154-.014 1.723 1.723 0 0 1-.611-.197 1.819 1.819 0 0 1-.457-.375 2.183 2.183 0 0 1-.322-.51c-.083-.192-.151-.397-.202-.615s-.088-.444-.111-.678a8.962 8.962 0 0 1 .014-1.572 11.121 11.121 0 0 1 .283-1.62c.064-.253.13-.489.197-.707zm5.533 4.851-.082.163c-.038.08-.09.173-.154.279-.061.106-.133.216-.216.332s-.176.221-.279.317a1.59 1.59 0 0 1-.332.24.81.81 0 0 1-.375.091.666.666 0 0 1-.471-.178 1.052 1.052 0 0 1-.274-.447 1.447 1.447 0 0 1-.389.438.782.782 0 0 1-.452.159.794.794 0 0 1-.322-.063.733.733 0 0 1-.245-.183.93.93 0 0 1-.159-.279 1.096 1.096 0 0 1-.053-.346 1.535 1.535 0 0 1 .452-1.14c.132-.128.276-.224.433-.288.16-.064.314-.096.462-.096.099 0 .191.014.274.043a1.094 1.094 0 0 1 .351.178l.053.043a.202.202 0 0 1 .053.13.19.19 0 0 1-.053.13.172.172 0 0 1-.125.053.178.178 0 0 1-.13-.053.45.45 0 0 0-.043-.034c-.022-.019-.053-.038-.091-.058s-.085-.035-.139-.048a.599.599 0 0 0-.178-.024.879.879 0 0 0-.625.279 1.187 1.187 0 0 0-.236.356 1.266 1.266 0 0 0-.072.693c.013.061.035.117.067.168s.075.093.13.125a.392.392 0 0 0 .202.048.43.43 0 0 0 .197-.058.68.68 0 0 0 .216-.178 1.445 1.445 0 0 0 .308-.736.166.166 0 0 1 .063-.111.18.18 0 0 1 .125-.048.15.15 0 0 1 .115.053.19.19 0 0 1 .058.12c.003.061.01.147.019.26.01.109.03.218.063.327.035.109.086.203.154.284s.16.12.279.12a.452.452 0 0 0 .226-.063 1.04 1.04 0 0 0 .221-.163c.074-.071.143-.149.207-.236.067-.09.128-.18.183-.269s.103-.176.144-.26c.042-.083.077-.155.106-.216a.189.189 0 0 1 .067-.082.196.196 0 0 1 .101-.029c.054 0 .098.021.13.063.035.038.053.08.053.125a.179.179 0 0 1-.014.067zm1.409 1.812c.603-.785 1.021-1.437 1.255-1.957a.175.175 0 0 1 .062-.077.172.172 0 0 1 .096-.029c.054 0 .099.019.135.058a.172.172 0 0 1 .039.192c-.141.32-.341.678-.601 1.072s-.588.84-.986 1.337c0 .202.002.404.005.606s.005.423.005.663c0 .24-.006.478-.019.712-.01.237-.029.462-.058.673a4.22 4.22 0 0 1-.12.591c-.048.183-.112.34-.192.471a.892.892 0 0 1-.284.313.657.657 0 0 1-.389.115c-.215 0-.38-.082-.495-.245s-.173-.396-.173-.697c0-.16.014-.335.043-.524.032-.186.077-.378.135-.577s.127-.401.207-.606c.083-.202.175-.399.274-.591s.207-.377.322-.553c.119-.176.244-.337.375-.481.003-.224.005-.447.005-.668.003-.221.008-.425.014-.611a1.063 1.063 0 0 1-.346.288.833.833 0 0 1-.394.106.74.74 0 0 1-.308-.063.71.71 0 0 1-.231-.183c-.064-.08-.114-.173-.149-.279s-.053-.221-.053-.346a1.535 1.535 0 0 1 .452-1.14c.132-.128.276-.224.433-.288.16-.064.314-.096.462-.096.099 0 .191.013.274.038a1.096 1.096 0 0 1 .351.177l.053.048c.035.038.053.082.053.13s-.018.091-.053.13a.172.172 0 0 1-.125.053.202.202 0 0 1-.13-.053l-.053-.038a.483.483 0 0 0-.202-.106.593.593 0 0 0-.163-.019.877.877 0 0 0-.317.067c-.115.042-.223.109-.322.202s-.183.213-.25.361a1.237 1.237 0 0 0-.101.524c0 .154.034.279.101.375.067.093.171.14.313.14a.455.455 0 0 0 .212-.058c.077-.038.151-.098.221-.178s.131-.181.183-.303c.054-.122.093-.266.115-.433a.166.166 0 0 1 .063-.111.18.18 0 0 1 .125-.048c.054 0 .096.019.125.058a.197.197 0 0 1 .048.13l-.005.149-.01.375-.014.548-.01.654zm-.365 1.053a4.82 4.82 0 0 0-.409.678 6.334 6.334 0 0 0-.514 1.471 3.442 3.442 0 0 0-.067.635c0 .119.01.213.029.284a.528.528 0 0 0 .077.163.25.25 0 0 0 .101.077.33.33 0 0 0 .366-.101c.074-.08.136-.188.188-.322.051-.131.093-.284.125-.457s.056-.353.072-.538a11.188 11.188 0 0 0 .044-1.053v-.413c0-.137-.003-.279-.01-.423zm2.408-5.298a.426.426 0 0 1-.13.313c-.083.083-.186.125-.308.125s-.226-.042-.313-.125a.437.437 0 0 1-.125-.313c0-.061.011-.117.034-.168a.445.445 0 0 1 .23-.235.456.456 0 0 1 .341 0 .377.377 0 0 1 .139.096.42.42 0 0 1 .13.307zm-.779 2.817c0-.462.029-.921.087-1.38a.196.196 0 0 1 .058-.115.183.183 0 0 1 .135-.053c.048 0 .088.019.12.058a.18.18 0 0 1 .048.125c0 .019-.005.077-.014.173-.006.096-.016.212-.029.346-.01.131-.019.272-.029.423-.006.147-.01.284-.01.409 0 .17.016.308.048.413a.691.691 0 0 0 .13.24.412.412 0 0 0 .168.115.586.586 0 0 0 .173.029c.09 0 .183-.032.279-.096s.194-.154.293-.269c.103-.115.205-.253.308-.413.103-.164.204-.345.303-.543a.162.162 0 0 1 .067-.072.172.172 0 0 1 .096-.029c.051 0 .093.019.125.058.035.038.053.08.053.125a.163.163 0 0 1-.019.082c-.038.074-.087.163-.144.269s-.123.215-.197.327a5.013 5.013 0 0 1-.245.337 2.398 2.398 0 0 1-.279.298c-.099.086-.204.157-.313.212s-.219.082-.332.082c-.144 0-.271-.03-.38-.091s-.202-.143-.279-.245a1.123 1.123 0 0 1-.168-.361 1.873 1.873 0 0 1-.053-.452zm.51-2.817a.15.15 0 0 0-.053-.115.15.15 0 0 0-.23 0c-.032.032-.048.07-.048.115s.016.083.048.115.07.048.115.048.083-.016.115-.048a.15.15 0 0 0 .053-.115zm4.697 2.442-.101.192a2.473 2.473 0 0 1-.188.317c-.077.115-.17.236-.279.361s-.234.24-.375.346c-.141.103-.3.188-.476.255a1.557 1.557 0 0 1-.567.101 1.12 1.12 0 0 1-.486-.101 1.01 1.01 0 0 1-.361-.274c-.099-.122-.175-.264-.226-.428s-.077-.345-.077-.543c0-.192.027-.372.082-.538.054-.17.128-.317.221-.442.096-.125.207-.223.332-.293a.77.77 0 0 1 .687-.053.594.594 0 0 1 .216.144.647.647 0 0 1 .139.202.512.512 0 0 1 .053.221.66.66 0 0 1-.029.197.613.613 0 0 1-.067.163.404.404 0 0 1-.091.111.175.175 0 0 1-.106.038.186.186 0 0 1-.135-.053.187.187 0 0 1-.034-.197l.038-.058a.264.264 0 0 0 .038-.077.321.321 0 0 0 .019-.12c0-.067-.032-.128-.096-.183a.342.342 0 0 0-.236-.082.466.466 0 0 0-.26.082.775.775 0 0 0-.212.221c-.061.09-.111.197-.149.322a1.438 1.438 0 0 0-.005.764c.032.119.08.224.144.317a.73.73 0 0 0 .24.216.722.722 0 0 0 .351.082c.173 0 .333-.03.481-.091.147-.064.282-.144.404-.24s.229-.2.322-.312c.093-.115.171-.223.236-.322a2.462 2.462 0 0 0 .221-.408.14.14 0 0 1 .063-.072.196.196 0 0 1 .101-.029.16.16 0 0 1 .13.058.188.188 0 0 1 .053.13.218.218 0 0 1-.019.077z"/></symbol><symbol id="icon-search" viewBox="0 0 32 32"><path stroke-width="4" d="M24.087 13.043c0 6.099-4.944 11.043-11.043 11.043S2.001 19.142 2.001 13.043C2.001 6.944 6.945 2 13.044 2s11.043 4.944 11.043 11.043z"/><path d="M28.586 31.414a2 2 0 1 0 2.828-2.828l-2.828 2.828zm-5.65-11.306-1.414-1.414-2.828 2.828 1.414 1.414 2.828-2.828zm8.478 8.478-8.478-8.478-2.828 2.828 8.478 8.478 2.828-2.828z"/></symbol><symbol id="icon-scissors" viewBox="0 0 32 32"><path d="M22.625 0c.502.19.804.618 1.046 1.084.629 1.407.679 2.988.329 4.479l-.033.141c-.233.967-.664 1.847-1.096 2.738l-.241.5c-.198.413-.398.826-.599 1.238-.107.22-.213.44-.318.661l-.131.273-.106.224c-.106.172-.159.23-.351.288-.381-.013-.381-.013-.559-.168-.109-.238-.093-.445-.005-.689l.087-.175.098-.2.108-.214.167-.338.115-.234c.245-.497.476-1 .708-1.503.282-.612.282-.612.415-.883.759-1.558 1.173-3.328.677-5.034a9.64 9.64 0 0 0-.313-.75l-.125-.313h-.125l-.032.105c-.11.344-.244.662-.405.985l-.072.147-.153.31c-.136.274-.271.549-.406.825l-.081.166c-.216.441-.424.885-.628 1.331a99.167 99.167 0 0 1-1.043 2.184l-.083.17-.321.656a162.92 162.92 0 0 0-1.142 2.386l-.065.138-.327.696c-.187.4-.376.799-.572 1.195l-.09.184c-.054.109-.108.218-.164.326l-.07.143-.061.121c-.082.291.073.549.199.806l.105.217.111.225a95.212 95.212 0 0 1 .734 1.528c.067.159.067.159.067.284h.125l.046-.153c.095-.269.214-.522.337-.779l.077-.161.161-.337.242-.508.382-.796c.061-.126.12-.253.18-.38l.097-.203.08-.17a.831.831 0 0 1 .335-.325c.216.008.373.019.555.141.092.143.113.253.133.422-.042.152-.042.152-.116.318l-.088.2-.108.232-.062.134c-.17.364-.343.727-.516 1.089l-.153.321-.076.16-.151.319c-.129.271-.26.541-.396.809l-.081.162c-.051.102-.103.203-.156.304-.115.233-.168.34-.116.602.158.308.375.579.677.753.299.067.562.106.867.069 2.1-.223 4.187.14 5.87 1.471.099.081.197.162.294.245l.098.083c1.695 1.453 2.812 3.564 3.027 5.792.107 1.549-.388 2.832-1.396 4.01-1.034 1.108-2.532 1.885-4.052 1.95-1.507.035-2.706-.335-3.827-1.367-1.149-1.102-1.739-2.585-2.394-4.009-.331-.717-.676-1.426-1.023-2.136a60.977 60.977 0 0 1-.744-1.573 32.21 32.21 0 0 0-1 1.992 98.081 98.081 0 0 1-1.02 2.148l-.071.146-.406.829-.134.274-.199.404-.059.121c-.648 1.305-1.685 2.318-3.049 2.837-1.443.475-2.953.284-4.305-.369-1.416-.721-2.526-1.925-3.032-3.44-.51-1.708.046-3.655.837-5.19a8.965 8.965 0 0 1 1.313-1.813l.093-.103c1.288-1.403 3.173-2.377 5.094-2.46a10.817 10.817 0 0 1 1.538.048c.668.068.668.068 1.289-.144.214-.177.394-.39.485-.654-.085-.317-.229-.607-.371-.901a20.298 20.298 0 0 0-.073-.153l-.155-.324-.242-.507c-.219-.461-.439-.923-.662-1.382l-.263-.548-.096-.194c-.161-.341-.251-.559-.138-.927.14-.16.224-.184.434-.215.24.034.327.113.504.277.092.152.092.152.169.326a13.186 13.186 0 0 1 .186.42 40.76 40.76 0 0 0 .274.603c.238.524.493 1.04.746 1.556.377.769.746 1.54 1.099 2.319.239.523.503 1.014.776 1.525l2.125-1.063c0-.194-.026-.264-.11-.433l-.073-.149-.08-.161-.083-.168-.176-.357-.275-.559-.359-.729a88.225 88.225 0 0 1-.52-1.073l-.077-.161a181.892 181.892 0 0 1-.72-1.53l-.063-.135c-.343-.73-.692-1.457-1.046-2.181l-.073-.149-.281-.577c-.372-.763-.738-1.529-1.098-2.298l-.247-.526a153.89 153.89 0 0 0-1.213-2.523c-.426-.87-.837-1.745-1.241-2.625a15.969 15.969 0 0 0-.224-.455c-.103-.211-.103-.211-.103-.336-.553.501-.709 1.367-.761 2.084-.086 1.812.542 3.338 1.336 4.935.216.436.42.878.624 1.32l.198.429.083.181c.059.126.121.251.184.376.124.253.117.395.085.674-.098.156-.098.156-.25.25-.219.031-.219.031-.438 0-.255-.199-.37-.461-.506-.746l-.072-.149-.231-.48-.16-.332-.396-.828-.202-.421C8.11 6.447 7.339 4.176 8.069 1.846 8.31 1.178 8.642.469 9.281.101c.275-.062.501-.076.762.039.292.229.445.507.598.84l.057.122.121.263a114.85 114.85 0 0 0 .403.868c.256.549.523 1.093.789 1.637.322.658.64 1.318.945 1.984.373.813.766 1.615 1.161 2.418.382.779.759 1.559 1.116 2.35.234.514.497 1.01.766 1.505.449-.921.897-1.842 1.324-2.773.365-.794.749-1.579 1.133-2.364.322-.657.64-1.315.945-1.98.401-.874.824-1.737 1.248-2.599l.081-.165.16-.325a30.555 30.555 0 0 0 .601-1.29c.247-.54.542-.715 1.132-.628zm-8.906 18.828c-.608.539-1.248.57-2.031.547a8.134 8.134 0 0 1-.273-.031c-1.724-.215-3.394.275-4.786 1.291-1.661 1.311-2.789 3.187-3.053 5.301-.123 1.184.191 2.151.923 3.082a5.397 5.397 0 0 0 3.439 1.92c1.095.103 2.081-.201 2.949-.863 1.224-1.025 1.812-2.621 2.463-4.037.256-.555.521-1.105.79-1.653.105-.214.208-.428.31-.642.41-.861.41-.861.661-1.227.191-.291.345-.531.326-.889-.177-.601-.48-1.147-.79-1.688A14.779 14.779 0 0 1 14 18.627c-.117 0-.201.127-.281.203zm4.601.337-.133.068-.152.076-.163.084-.167.084-.529.269-.359.182c-.294.148-.587.298-.88.447.293.67.596 1.334.919 1.991.336.684.665 1.371.984 2.064.355.77.723 1.533 1.096 2.295.212.434.422.869.623 1.309.567 1.237 1.387 2.257 2.684 2.771 1.034.383 2.237.273 3.234-.164a6.353 6.353 0 0 0 1.711-1.203l.133-.13c.698-.734 1.116-1.656 1.145-2.675-.074-2.073-1.033-4.026-2.527-5.445-1.514-1.362-3.22-1.802-5.219-1.75-.264.007-.527.012-.791.016l-.178.006c-.426.006-.74-.095-1.124-.272-.176-.08-.176-.08-.305-.023z"/><path d="M24.188 21.813c1.041.75 1.759 1.785 2.309 2.93l.072.149c.362.778.461 1.688.21 2.519-.315.795-.895 1.396-1.652 1.777-.856.354-1.71.326-2.567-.014-1.252-.577-1.8-1.731-2.363-2.912l-.165-.342c-1.418-2.947-1.418-2.947-1.166-3.7.076-.131.156-.234.26-.344l.095-.102c1.25-1.118 3.701-.794 4.968.04zm-4.375.812c-.109.44.169.835.363 1.219l.111.225.228.459c.162.326.317.655.473.984l.248.517.212.448c.424.89.913 1.551 1.864 1.898.623.176 1.15.001 1.703-.297.487-.399.811-.839.883-1.476.039-1.152-.634-2.174-1.336-3.04l-.109-.14c-.54-.663-1.408-1.22-2.272-1.311a8.854 8.854 0 0 0-.431-.01h-.157c-.61.012-1.311.105-1.781.523zM12.598 21.552c.322.271.531.518.632.936.047.738-.292 1.322-.614 1.966-.131.262-.258.526-.385.79a210.68 210.68 0 0 1-.735 1.512l-.165.339-.097.199-.083.171c-.16.29-.369.537-.588.785l-.103.121a2.993 2.993 0 0 1-2.023.961c-.946.039-1.752-.204-2.466-.846-.652-.67-.866-1.406-.865-2.309.024-1.438.998-2.797 1.957-3.802l.104-.118c1.219-1.333 3.899-1.796 5.431-.705zm-5.169 1.902c-.727.847-1.362 1.938-1.328 3.072.054.511.259.947.649 1.287.584.412 1.097.567 1.813.5.704-.174 1.277-.667 1.656-1.275.091-.166.177-.333.262-.502l.096-.188c.331-.653.647-1.313.96-1.975.085-.178.172-.355.26-.532l.08-.163.148-.296c.136-.28.216-.501.162-.819-.399-.436-1.149-.536-1.713-.572-1.279-.044-2.203.573-3.046 1.464zM16.006 16.595c.119.03.119.03.275.159.116.228.126.368.094.621-.066.148-.066.148-.188.25-.214.055-.368.083-.582.02-.189-.147-.224-.282-.254-.516.05-.408.261-.561.654-.534z"/></symbol><symbol id="icon-paper" viewBox="0 0 32 32"><path d="m13.603.07.226.023.611.063.663.068 1.295.134 1.052.109.152.016.305.031 2.855.296 2.448.253 2.847.294.304.032.151.016 1.051.109 1.28.133.653.068.708.074.208.021c.852.091.852.091 1.086.298.091.197.076.334.057.551l-.011.13c-.013.154-.028.308-.043.462l-.017.179c-.049.514-.102 1.027-.155 1.54l-.053.518-.129 1.253-.105 1.018-.298 2.892-.016.157-.016.157-.26 2.528-.267 2.6-.15 1.458-.128 1.239-.065.632-.071.685-.02.202c-.084.79-.084.79-.294.968-.211.051-.372.022-.582-.027-.154-.098-.181-.161-.227-.338-.033-.317.004-.619.038-.935l.022-.218.062-.597.066-.644.131-1.261.152-1.468.272-2.62.264-2.543.016-.158.016-.158.033-.315.016-.157.251-2.422.091-.878.145-1.393.066-.637a1539.142 1539.142 0 0 1 .093-.893l.02-.186.017-.161c.018-.135.046-.262.082-.393l-.106-.009c-.998-.084-1.994-.181-2.991-.284l-.482-.05-1.161-.12-.943-.097-2.681-.277-.145-.015-.145-.015-2.343-.242-2.412-.249-1.352-.139a543.7 543.7 0 0 1-1.267-.131l-.466-.048-.633-.066-.188-.019-.17-.018-.148-.015c-.118-.018-.118-.018-.243-.081l-.022.232-.081.859-.035.37-.051.535-.016.165-.015.159-.013.138c-.025.243-.052.487-.079.73l.113-.016a2236.34 2236.34 0 0 1 4.043-.562l1.272-.176.485-.068.68-.094.202-.029c.631-.085.631-.085.956.007.176.165.216.318.248.553l.026.181.025.195.028.202.087.639.059.428.129.948.085.605h.221c.688.001 1.376.004 2.064.008.354.002.707.004 1.061.004.341 0 .682.002 1.024.005l.391.001.547.003.164-.002a382.767 382.767 0 0 0 .282.004c.21.068.265.159.372.352.037.243.033.485.03.73l.001.227c0 .207 0 .415-.002.622l-.001.671-.002 1.163c-.002.56-.003 1.121-.003 1.681-.001.909-.002 1.818-.005 2.727l-.005 2.649v.165l-.001.819c-.003 2.265-.007 4.531-.013 6.796l.226.011.294.016.149.007.143.008.132.007c.119.013.119.013.306.075l.019-.23.074-.847.031-.366c.015-.176.03-.352.047-.527l.013-.165c.031-.317.076-.51.316-.739.172-.054.324-.037.5 0 .156.082.156.082.25.25.061.577-.038 1.182-.096 1.757l-.048.497-.032.32-.014.148a2.104 2.104 0 0 1-.247.841c-.188.147-.344.135-.576.112l-.189-.017-.196-.02a69.532 69.532 0 0 0-.195-.018 9.913 9.913 0 0 1-.907-.119l.015.242.012.32.011.159c.008.285-.011.47-.208.683l-.121.131c-.323.334-.65.664-.979.992l-.241.241-.503.502-.645.645-.497.497-.238.238-.331.331-.099.1c-.215.214-.322.302-.623.303l-.165.001h-.182l-.192.001-.642.002-.459.002-1.38.003-.39.001-2.418.004-.56.001H15.9l-2.256.005c-.772.003-1.544.004-2.315.004-.434 0-.867.001-1.301.003-.408.002-.815.002-1.223.002l-.45.002h-.612l-.181.003c-.4-.005-.4-.005-.601-.188-.102-.191-.117-.308-.112-.523l.002-.202.006-.209.003-.213c.003-.173.007-.345.012-.518l-.189.029-.705.105-.303.045c-1.371.208-1.371.208-1.741.134-.211-.174-.283-.296-.32-.566l-.028-.191a56.152 56.152 0 0 1-.027-.207l-.031-.219a164.06 164.06 0 0 1-.094-.692l-.061-.434c-.059-.421-.116-.843-.172-1.265l-.088-.655-.153-1.131-.222-1.648-.363-2.691-.348-2.583a12.104 12.104 0 0 0-.022-.16l-.129-.954-.191-1.412-.021-.155-.261-1.932-.076-.564-.165-1.225-.088-.656-.017-.129a390.26 390.26 0 0 0-.254-1.848l-.108-.776-.086-.609-.093-.663-.028-.196c-.105-.776-.105-.776.111-1.085.188-.132.331-.155.559-.185l.125-.018.415-.055.298-.041c.269-.037.539-.072.808-.108l.846-.114 1.421-.19c.608-.08 1.215-.162 1.823-.244.522-.07 1.045-.141 1.568-.21l.336-.045.959-.128.29-.039.397-.053.224-.03c.195-.02.383-.025.579-.021l.021-.221.079-.832.034-.356.016-.173.016-.173.033-.348c.028-.291.055-.581.08-.872l.015-.17.026-.317c.029-.318.094-.565.242-.85.471-.235 1.278-.047 1.79.008zm5.53 4.178-.146.02-.168.022-.186.026-.196.026c-.219.029-.437.06-.656.09l-.469.063-1.145.156-1.337.182c-.797.108-1.594.217-2.39.327l-2.31.316-.143.019-.57.078-2.478.338-.398.054a791.866 791.866 0 0 0-1.978.271c-1.023.14-2.044.291-3.065.451a2061.675 2061.675 0 0 0 1.207 9.017l.385 2.85.373 2.76.023.173.116.861.958 7.088c.78-.032 1.542-.131 2.313-.25v-.245c.002-1.92.006-3.841.011-5.761l.002-.709v-.143l.004-2.286.005-2.345c.002-.483.002-.965.002-1.448 0-.37.001-.739.003-1.109v-.456l.002-.62-.001-.184c.005-.404.005-.404.149-.608.181-.117.298-.109.51-.087l.25.063.063 17.813h14.062l.063-3.563c.125-.25.125-.25.25-.313l3.625-.063V8.059h-18l-.063 3.313c-.207.138-.272.139-.512.133l-.171-.003-.13-.004a2.153 2.153 0 0 1-.073-.63l-.002-.233-.001-.251-.001-.258-.001-.54c0-.23-.002-.461-.004-.691a94.344 94.344 0 0 1-.004-.787l-.001-.356-.001-.205c.027-.21.056-.28.21-.425.175-.025.325-.034.499-.032l.156-.001h.519l.371-.002c.337-.002.673-.002 1.01-.002.352 0 .703-.002 1.055-.003.666-.003 1.332-.004 1.998-.005l2.274-.006c1.56-.005 3.12-.009 4.679-.011l-.029-.421-.017-.237c-.03-.392-.084-.78-.137-1.17l-.032-.247-.032-.235-.029-.211c-.04-.185-.073-.29-.278-.293zm3.805 23.877v2.188c.333-.282.333-.282.648-.577l.106-.105.109-.11.116-.116.239-.24.369-.368.233-.234.112-.111c.175-.141.175-.141.256-.327h-2.188z"/></symbol><symbol id="icon-stone" viewBox="0 0 32 32"><path d="m12.001 2.356.197.014.638.047.447.033.934.069 1.194.087.922.068.44.032.616.046.182.013c.997.077.997.077 1.346.383l.157.135.175.155.21.18.45.386c.239.206.484.405.729.604.333.272.66.551.987.83l.156.132.133.114.112.095c.454.44.433 1.088.482 1.686l.016.182c.026.304.045.609.053.914l.005.165c-.025.185-.078.267-.208.399-.214.055-.368.083-.582.02-.188-.146-.226-.3-.26-.532l-.019-.235-.011-.127-.034-.399-.045-.525-.019-.235c-.061-.45-.198-.667-.549-.947l-.118-.098-.243-.199c-.147-.12-.292-.244-.436-.367-.527-.449-1.054-.894-1.62-1.293l-.122.202c-.312.516-.63 1.027-.96 1.532l-.101.155-.436.668-.361.556-.114.173-.106.164a9.027 9.027 0 0 0-.093.144c-.171.328-.228.686-.281 1.049l-.02.133-.064.436-.046.314-.124.851-.13.892-.218 1.497-.253 1.73-.243 1.665-.104.708-.122.834-.045.306-.061.418-.034.236a4.263 4.263 0 0 0-.024.587l.146-.157.197-.206.096-.104a154.807 154.807 0 0 1 .185-.193c.347-.249.788-.323 1.199-.405l.16-.033.332-.067.508-.104.324-.066.153-.031a3.1 3.1 0 0 1 .637-.071l-.002-.217c-.005-.669.004-1.338.022-2.006l.006-.262c.02-.889.208-1.644.474-2.487.051-.161.1-.322.149-.483l.098-.311.044-.144c.133-.415.318-.867.717-1.086l.125-.072c.535-.261 1.184-.103 1.742.006l.047-.238c.044-.171.069-.252.188-.387a.779.779 0 0 1 .516-.063c.244.172.327.321.384.606l.031.153.022.116.111.017c.381.059.763.119 1.144.18l.426.066c.205.031.41.064.614.097l.191.028c.472.079.821.228 1.159.572.126.197.211.399.289.618l.048.135.097.278c.042.121.089.24.136.359.415 1.163.363 2.553.348 3.775l.137.051c.171.072.32.154.478.251l.175.107.186.114.192.118a112.966 112.966 0 0 1 .757.467l.48.298.143.088c.216.136.427.277.628.433l.102.078c.245.305.32.739.396 1.115l.03.142.094.46.066.324.138.677.177.861.137.669.065.317c.347 1.665.347 1.665-.033 2.417a43.04 43.04 0 0 1-.276.575l-.14.295c-.122.257-.246.513-.372.768l-.102.211a1.047 1.047 0 0 1-.292.367l-.105.091c-.359.232-.791.254-1.205.306l-.213.028-.697.089-.486.063-1.018.13-1.173.151-1.132.145-.48.062-.673.086-.199.026c-.73.091-1.368.038-2.092-.094l-.277-.049a214.763 214.763 0 0 0-1.53-.274l-1.315-.236-1.518-.272-1.464-.262a757.442 757.442 0 0 0-1.354-.243l-.268-.048c-1.233-.218-1.233-.218-1.594-.59a4.483 4.483 0 0 1-.266-.527l-.063-.135c-.183-.398-.353-.802-.526-1.205l-.079-.184-.192-.448h-.106c-.852-.004-1.705-.008-2.557-.014a507.21 507.21 0 0 0-1.237-.007l-1.194-.007-.455-.002a135.69 135.69 0 0 1-.638-.004H4.31c-.419-.006-.781-.054-1.128-.31-.309-.358-.495-.764-.681-1.195-.1-.23-.202-.459-.304-.689l-.064-.145a56.221 56.221 0 0 0-.664-1.43c-.134-.281-.266-.562-.398-.844-.13-.276-.261-.55-.393-.825a42.205 42.205 0 0 1-.248-.525 17.996 17.996 0 0 0-.116-.242C.029 18.243-.16 17.739.051 17.1c.171-.457.376-.9.579-1.344l.194-.436.303-.681c.377-.842.737-1.691 1.096-2.54l.181-.426.087-.204.165-.388c.113-.266.226-.531.332-.8l.05-.125c.042-.104.082-.208.122-.312.109-.189.204-.255.402-.343.231.004.376.016.563.156.142.355.007.729-.133 1.065l-.187.415-.221.499-.062.14c-.35.791-.684 1.588-1.022 2.385-.607 1.432-.607 1.432-.9 2.084l-.118.264c-.069.154-.138.306-.209.459l-.089.199-.076.166c-.106.397.06.739.228 1.092l.066.141.216.459.151.323.318.679c.163.348.324.696.485 1.045l.158.343.227.493.212.459.06.131c.226.486.469.961.709 1.442l6.438.063v-.375c.164-.42.525-.731.844-1.035l.311-.304c.162-.157.325-.315.489-.471.159-.152.316-.306.473-.46l.148-.14.137-.135.121-.116c.229-.346.249-.83.307-1.235l.022-.149.071-.49.052-.353.139-.955.146-.999.276-1.89.315-2.153.647-4.427c-.203-.135-.362-.181-.598-.244a8.053 8.053 0 0 1-.126-.034l-.418-.111-.297-.08-.635-.17a365.35 365.35 0 0 1-.994-.266l-1.008-.27c-.962-.257-1.924-.516-2.886-.777L7.2 6.172l-.428-.116-.196-.053a21.416 21.416 0 0 0-.177-.048l-.153-.041c-.122-.037-.122-.037-.247-.099l-.018.123c-.06.253-.159.481-.261.719l-.065.153-.137.319c-.07.162-.139.325-.207.488l-.133.31-.062.147c-.185.424-.185.424-.429.553a1.184 1.184 0 0 1-.5-.063c-.155-.131-.182-.208-.207-.407.028-.309.146-.56.271-.843l.078-.181.165-.377.25-.575.16-.367.075-.173c.356-.806.356-.806.748-1.004l.172-.088.185-.091.194-.098a71.545 71.545 0 0 1 1.649-.8c.289-.136.577-.275.864-.415l.246-.12.361-.176c.242-.119.486-.235.73-.349l.14-.067c.532-.231 1.172-.119 1.737-.077zm-1.439 1.051-.129.063-.134.069-.144.071c-.153.076-.305.153-.456.23l-.313.156-.463.231c-.429.215-.863.421-1.3.619-.227.093-.227.093-.373.279l.204.056 1.938.526 1.189.323.578.157.76.206c.573.156 1.147.312 1.719.47l.43.119.391.109.232.064.2.056c.182.048.182.048.42.039.087-.087.087-.087.151-.209l.081-.137.085-.15.184-.313.094-.161a18.7 18.7 0 0 1 .433-.683c.372-.57.735-1.146 1.098-1.723a1.112 1.112 0 0 0-.5-.157l-.149-.012-.161-.011-.171-.013-.561-.041-.39-.029-.819-.06-1.047-.076-.807-.059-.386-.028-.541-.039-.16-.012c-.606-.068-.606-.068-1.182.068zm9.739 8.497c-.155.216-.224.434-.302.687l-.049.156a40.43 40.43 0 0 0-.101.325l-.156.495-.099.317-.047.148c-.087.288-.136.539-.108.843.125.169.125.169.313.313l.11.093c.254.212.513.417.772.624.099.081.196.164.293.248l.141.121.115.103c.352.165.846-.086 1.187-.207l.179-.062.573-.201.392-.138.946-.335.445-.157c.214-.075.427-.152.64-.23l.178-.063.159-.059.132-.048a.72.72 0 0 0 .301-.314c.003-.127.003-.127-.038-.256l-.04-.149-.047-.157-.047-.16c-.05-.164-.105-.326-.16-.489l-.054-.168-.055-.161a24.744 24.744 0 0 1-.048-.145c-.101-.175-.206-.223-.386-.315-.215-.055-.215-.055-.454-.09l-.135-.022a66.999 66.999 0 0 0-.44-.07l-.307-.05-.643-.103-.822-.132-.634-.102-.303-.049-.424-.067-.244-.039c-.383-.061-.383-.061-.73.065zm5.356 4.092-.162.058-.522.189-.537.194-.359.13a72.29 72.29 0 0 1-1.075.379l-.246.085-.448.154-.198.069-.171.058c-.148.056-.148.056-.189.251-.031.278-.047.557-.066.836l-.017.23-.016.229-.015.206c-.019.354-.012.708-.01 1.062a5024.491 5024.491 0 0 1 2.518-.527l.771-.162.294-.061.412-.087.237-.05c.256-.063.455-.113.644-.301.013-.163.018-.318.016-.48l-.001-.152c-.011-.832-.08-1.663-.14-2.492-.259 0-.478.095-.718.183zm-6.282.192c-.072.52-.091 1.038-.108 1.562l-.013.338c-.007.164-.012.328-.017.491l-.007.152c-.006.243.002.363.131.576.125.117.225.197.378.271l.133.065.136.064.138.068c.229.12.229.12.479.162.049-.37.091-.739.128-1.11.013-.126.028-.252.045-.377.116-.683.116-.683-.066-1.324a2.684 2.684 0 0 0-.688-.503 3.073 3.073 0 0 1-.407-.291c-.167-.151-.167-.151-.262-.145zm8.125 2.25-.005.133c-.03.509-.12.854-.472 1.23-.509.378-1.291.43-1.9.561l-.308.066-.643.138-.82.177-.635.137-.302.065c-1.36.297-1.36.297-1.848.075l-.156-.069-.161-.076-.171-.077a25.481 25.481 0 0 1-.528-.251l-.179-.083c-.396-.194-.699-.397-.934-.776-.059-.177-.059-.177-.105-.361l-.048-.186-.034-.141c-2.158.124-3.271.986-4.703 2.541a34.7 34.7 0 0 1-.595.618c-.24.245-.477.492-.714.74l-.136.141c-.125.132-.249.265-.372.398l-.113.117c-.206.224-.206.224-.239.519.073.217.157.427.25.635l.184.414c1.521.009 3.041-.029 4.561-.065.496-.012.993-.023 1.489-.031.437-.007.874-.016 1.31-.028.23-.006.46-.011.69-.014 1.016-.012 1.798-.031 2.575-.737.095-.065.191-.129.289-.189l.121-.078.519-.333c.136-.088.271-.179.406-.269l.263-.173.119-.082c.293-.19.496-.226.845-.187.129.133.129.133.188.313-.012.223-.025.337-.184.499l-.164.11a59.37 59.37 0 0 1-.19.129 55.96 55.96 0 0 1-.931.586c-.326.202-.648.411-.969.621l-.169.11-.394.257c.082.608.181 1.212.291 1.815l.076.421.049.269.044.243c.03.184.03.184.102.315 1.115-.069 2.224-.223 3.332-.36.372-.046.744-.091 1.117-.134.362-.042.724-.086 1.086-.132.137-.017.275-.033.413-.048.192-.022.384-.046.575-.071l.172-.017c.225-.032.376-.053.533-.225a3.23 3.23 0 0 0 .21-.388l.11-.215c.088-.189.175-.379.261-.569.055-.122.112-.243.168-.364l.107-.236.097-.213c.127-.394.072-.767-.009-1.166l-.025-.127-.083-.41-.058-.287-.122-.599-.155-.768-.12-.591-.057-.283c-.026-.132-.054-.263-.081-.394l-.046-.227c-.035-.182-.035-.182-.173-.3l-.195.126-1.137.736-.131.085-.262.169c-.23.149-.46.299-.688.451l-.143.095-.269.18a2.1 2.1 0 0 1-.8.345c-.18-.059-.18-.059-.313-.188-.07-.211-.07-.211-.063-.438.2-.231.423-.399.677-.567l.104-.069.332-.219.229-.152c.445-.294.893-.585 1.349-.863.258-.157.502-.328.746-.505-.156-.172-.329-.284-.525-.407a29.152 29.152 0 0 1-.2-.125l-.209-.129-.208-.13c-.39-.245-.39-.245-.796-.46zm-9.49 7.476-.443.012-.917.026-1.172.032-.91.025-.432.012-.602.017-.177.005c-.351.011-.694.039-1.043.082l.04.123.094.292.053.147.043.128c.12.179.236.181.444.222a29.068 29.068 0 0 0 .451.087l.203.039c.209.04.418.077.627.114l.238.043.637.113.67.119 1.122.2 1.297.231 1.251.223.531.095.74.131.223.04.203.036.176.031c.153.027.153.027.334.022-.045-.573-.149-1.132-.254-1.695a24.9 24.9 0 0 1-.053-.29l-.13-.703a97.195 97.195 0 0 0-3.24.039z"/><path d="M19.938 22.75c.207.133.207.133.313.313.051.244.02.34-.105.555-.324.208-.646.192-1.02.133-.207-.133-.207-.133-.313-.313-.051-.244-.02-.34.105-.555.324-.208.646-.192 1.02-.133zM3.832 17.168l.214-.007c.246.032.346.098.516.277.042.125.042.125.039.25l.002.125c-.066.199-.179.267-.354.375-.199.031-.199.031-.41.027h-.211c-.208-.029-.295-.066-.441-.215-.069-.248-.088-.381.02-.617.182-.23.342-.209.625-.215zM9.594 16.527h.248c.221.035.221.035.373.149.142.198.127.336.097.574-.11.199-.156.24-.375.313-.312.025-.594.041-.883-.086-.155-.134-.176-.197-.199-.402.046-.466.309-.554.738-.547zM23.625 13.063c.215.125.215.125.313.313.021.182.016.334-.063.5-.285.222-.537.223-.886.213-.177-.026-.177-.026-.38-.155-.137-.231-.153-.357-.109-.621.278-.378.699-.307 1.125-.25zM9 20.563c.195.086.281.124.375.313.036.387.036.387-.097.574-.211.156-.361.148-.622.148l-.248.004c-.221-.039-.221-.039-.375-.184-.095-.168-.095-.168-.092-.395.056-.201.081-.279.246-.398.245-.122.545-.085.813-.063zM17.371 21.477l.232-.005c.209.029.209.029.36.14.104.146.135.212.135.389l.004.125c-.063.2-.177.267-.352.375-.199.033-.199.033-.41.031l-.211.002c-.228-.04-.3-.103-.441-.283a.653.653 0 0 1-.016-.48c.164-.304.383-.29.699-.293zM10.84 18.473l.25-.004c.223.031.223.031.376.144.142.2.132.335.097.574a.743.743 0 0 1-.438.313c-.337.033-.603.035-.875-.188-.125-.188-.125-.188-.113-.406.098-.422.301-.438.703-.434zM7.965 9.223l.25-.004c.223.031.223.031.376.144.142.2.132.335.097.574-.098.136-.098.136-.25.25-.221.035-.221.035-.469.035l-.248.004c-.221-.039-.221-.039-.375-.184-.095-.168-.095-.168-.092-.395.114-.412.311-.43.711-.426z"/></symbol></defs></svg>