<svg aria-hidden="true" style="position: absolute; width: 0; height: 0; overflow: hidden;" version="1.1" xmlns="http://www.w3.org/2000/svg" xmlns:xlink="http://www.w3.org/1999/xlink">
<defs>
<symbol id="icon-logo" viewBox="0 0 78 32">
<path stroke-linejoin="round" stroke-linecap="round" stroke-miterlimit="4" stroke-width="1.641" d="M9.026 9.613l-8.205 8.205 8.205 8.205"></path>
<path stroke-linejoin="round" stroke-linecap="round" stroke-miterlimit="4" stroke-width="1.641" d="M25.436 9.613l8.205 8.205-8.205 8.205"></path>
<path d="M20.131 3.553l-7.046 26.294c-0.096 0.357-0.463 0.569-0.82 0.474s-0.569-0.463-0.474-0.82l7.046-26.294c0.096-0.357 0.463-0.569 0.82-0.474s0.569 0.463 0.474 0.82z"></path>
<path d="M18.837 3.206c0.096-0.357 0.463-0.569 0.82-0.474s0.569 0.463 0.474 0.82l-0.858 3.203-1.294-0.347 0.858-3.203z"></path>
<path stroke-linejoin="miter" stroke-linecap="round" stroke-miterlimit="4" stroke-width="0.8205" d="M21.083 5.177l2.588 0.693"></path>
<path stroke-linejoin="miter" stroke-linecap="round" stroke-miterlimit="4" stroke-width="0.8205" d="M14.613 3.443l2.588 0.693"></path>
<path stroke-linejoin="miter" stroke-linecap="round" stroke-miterlimit="4" stroke-width="0.8205" d="M16.12 0.409l1.344 2.305"></path>
<path stroke-linejoin="miter" stroke-linecap="round" stroke-miterlimit="4" stroke-width="0.8205" d="M14.43 6.715l2.316-1.324"></path>
<path stroke-linejoin="miter" stroke-linecap="round" stroke-miterlimit="4" stroke-width="0.8205" d="M20.739 6.46l1.344 2.305"></path>
<path stroke-linejoin="miter" stroke-linecap="round" stroke-miterlimit="4" stroke-width="0.8205" d="M21.456 3.784l2.316-1.324"></path>
<path d="M45.141 11.782c-0.683 0-1.3-0.151-1.851-0.453-0.545-0.302-0.975-0.719-1.29-1.25-0.309-0.538-0.463-1.139-0.463-1.802s0.154-1.26 0.463-1.792c0.315-0.538 0.748-0.958 1.3-1.26s1.168-0.453 1.851-0.453c0.512 0 0.985 0.085 1.418 0.256s0.801 0.42 1.103 0.748l-0.463 0.463c-0.538-0.545-1.218-0.817-2.038-0.817-0.545 0-1.040 0.125-1.487 0.374s-0.798 0.591-1.054 1.024c-0.249 0.433-0.374 0.919-0.374 1.457s0.125 1.024 0.374 1.457c0.256 0.433 0.607 0.775 1.054 1.024s0.942 0.374 1.487 0.374c0.827 0 1.506-0.276 2.038-0.827l0.463 0.463c-0.302 0.328-0.673 0.581-1.113 0.758-0.433 0.171-0.906 0.256-1.418 0.256zM50.964 11.772c-0.499 0-0.949-0.112-1.349-0.335-0.4-0.23-0.715-0.545-0.945-0.945s-0.345-0.853-0.345-1.359c0-0.505 0.115-0.958 0.345-1.359s0.545-0.712 0.945-0.935c0.4-0.223 0.85-0.335 1.349-0.335s0.949 0.112 1.349 0.335c0.4 0.223 0.712 0.535 0.935 0.935 0.23 0.4 0.345 0.853 0.345 1.359s-0.115 0.958-0.345 1.359c-0.223 0.4-0.535 0.716-0.935 0.945-0.4 0.223-0.85 0.335-1.349 0.335zM50.964 11.152c0.368 0 0.696-0.082 0.985-0.246 0.295-0.171 0.525-0.41 0.689-0.719s0.246-0.66 0.246-1.054c0-0.394-0.082-0.745-0.246-1.054s-0.394-0.545-0.689-0.709c-0.289-0.171-0.617-0.256-0.985-0.256s-0.699 0.085-0.994 0.256c-0.289 0.164-0.519 0.4-0.689 0.709-0.164 0.309-0.246 0.66-0.246 1.054s0.082 0.745 0.246 1.054c0.171 0.309 0.4 0.548 0.689 0.719 0.295 0.164 0.627 0.246 0.994 0.246zM59.746 4.417v7.306h-0.67v-1.024c-0.21 0.348-0.489 0.614-0.837 0.798-0.341 0.184-0.729 0.276-1.162 0.276-0.486 0-0.926-0.112-1.319-0.335s-0.702-0.535-0.926-0.935c-0.223-0.4-0.335-0.857-0.335-1.369s0.112-0.968 0.335-1.369c0.223-0.4 0.532-0.709 0.926-0.926 0.394-0.223 0.834-0.335 1.319-0.335 0.42 0 0.798 0.089 1.132 0.266 0.341 0.171 0.62 0.423 0.837 0.758v-3.111h0.699zM57.137 11.152c0.361 0 0.686-0.082 0.975-0.246 0.295-0.171 0.525-0.41 0.689-0.719 0.171-0.309 0.256-0.66 0.256-1.054s-0.085-0.745-0.256-1.054c-0.164-0.309-0.394-0.545-0.689-0.709-0.289-0.171-0.614-0.256-0.975-0.256-0.368 0-0.699 0.085-0.994 0.256-0.289 0.164-0.519 0.4-0.689 0.709-0.164 0.309-0.246 0.66-0.246 1.054s0.082 0.745 0.246 1.054c0.171 0.309 0.4 0.548 0.689 0.719 0.295 0.164 0.627 0.246 0.994 0.246zM61.693 6.544h0.699v5.179h-0.699v-5.179zM62.047 5.411c-0.144 0-0.266-0.049-0.364-0.148s-0.148-0.217-0.148-0.354c0-0.131 0.049-0.246 0.148-0.345s0.22-0.148 0.364-0.148c0.144 0 0.266 0.049 0.364 0.148 0.098 0.092 0.148 0.204 0.148 0.335 0 0.144-0.049 0.266-0.148 0.364s-0.22 0.148-0.364 0.148zM66.976 6.504c0.65 0 1.165 0.19 1.546 0.571 0.387 0.374 0.581 0.922 0.581 1.644v3.003h-0.699v-2.934c0-0.538-0.135-0.949-0.404-1.231s-0.653-0.423-1.152-0.423c-0.558 0-1.001 0.167-1.329 0.502-0.322 0.328-0.482 0.784-0.482 1.369v2.718h-0.699v-5.179h0.67v0.955c0.19-0.315 0.453-0.558 0.788-0.729 0.341-0.177 0.735-0.266 1.182-0.266zM75.815 6.544v4.549c0 0.88-0.217 1.529-0.65 1.95-0.427 0.427-1.073 0.64-1.94 0.64-0.479 0-0.935-0.072-1.369-0.217-0.427-0.138-0.775-0.332-1.044-0.581l0.354-0.532c0.249 0.223 0.551 0.397 0.906 0.522 0.361 0.125 0.738 0.187 1.132 0.187 0.656 0 1.139-0.154 1.447-0.463 0.308-0.302 0.463-0.775 0.463-1.418v-0.66c-0.217 0.328-0.502 0.578-0.857 0.748-0.348 0.171-0.735 0.256-1.162 0.256-0.486 0-0.929-0.105-1.329-0.315-0.394-0.217-0.706-0.515-0.935-0.896-0.223-0.387-0.335-0.824-0.335-1.31s0.112-0.919 0.335-1.3c0.23-0.381 0.542-0.676 0.935-0.886s0.837-0.315 1.329-0.315c0.44 0 0.837 0.089 1.191 0.266s0.64 0.433 0.857 0.768v-0.994h0.67zM73.166 10.905c0.374 0 0.712-0.079 1.014-0.236 0.302-0.164 0.535-0.391 0.699-0.679 0.171-0.289 0.256-0.617 0.256-0.985s-0.085-0.693-0.256-0.975c-0.164-0.289-0.397-0.512-0.699-0.67-0.295-0.164-0.633-0.246-1.014-0.246-0.374 0-0.712 0.079-1.014 0.236-0.295 0.158-0.528 0.381-0.699 0.67-0.164 0.289-0.246 0.617-0.246 0.985s0.082 0.696 0.246 0.985c0.171 0.289 0.404 0.515 0.699 0.679 0.302 0.158 0.64 0.236 1.014 0.236z"></path>
<path d="M63.965 18.659c-0.138 0.202-0.292 0.444-0.462 0.726s-0.351 0.598-0.543 0.947c-0.163 0.292-0.325 0.603-0.486 0.933-0.157 0.327-0.308 0.652-0.452 0.976-0.144 0.32-0.277 0.63-0.399 0.928-0.122 0.295-0.228 0.556-0.317 0.784-0.090 0.224-0.16 0.405-0.212 0.543-0.051 0.135-0.077 0.204-0.077 0.207-0.032 0.080-0.090 0.12-0.173 0.12-0.042 0-0.079-0.013-0.111-0.038-0.032-0.029-0.053-0.064-0.062-0.106 0-0.003-0.016-0.071-0.048-0.202-0.029-0.135-0.069-0.313-0.12-0.534-0.051-0.224-0.111-0.481-0.178-0.769-0.064-0.292-0.133-0.595-0.207-0.909-0.070-0.317-0.143-0.638-0.216-0.962s-0.143-0.631-0.207-0.923c-0.215 0.606-0.431 1.143-0.649 1.611-0.215 0.465-0.436 0.87-0.663 1.216-0.228 0.343-0.463 0.631-0.707 0.865-0.24 0.234-0.494 0.423-0.76 0.567-0.263 0.141-0.54 0.242-0.832 0.303-0.288 0.061-0.595 0.091-0.918 0.091-0.167 0-0.345-0.019-0.534-0.058-0.189-0.035-0.377-0.091-0.563-0.168s-0.364-0.173-0.534-0.288c-0.17-0.115-0.321-0.252-0.452-0.409-0.131-0.16-0.236-0.34-0.313-0.538-0.077-0.202-0.115-0.426-0.115-0.673 0-0.26 0.054-0.497 0.163-0.712 0.109-0.218 0.256-0.404 0.442-0.558 0.186-0.157 0.401-0.279 0.644-0.365 0.247-0.086 0.506-0.13 0.779-0.13 0.199 0 0.377 0.018 0.534 0.053 0.16 0.032 0.301 0.074 0.423 0.125s0.226 0.107 0.312 0.168 0.159 0.117 0.216 0.168c0.058 0.051 0.099 0.096 0.125 0.135 0.026 0.035 0.040 0.053 0.043 0.053 0.019 0.035 0.029 0.069 0.029 0.101 0 0.045-0.018 0.087-0.053 0.125-0.032 0.038-0.075 0.058-0.13 0.058-0.064 0-0.115-0.027-0.154-0.082-0.003-0.003-0.029-0.032-0.077-0.087-0.048-0.058-0.127-0.12-0.236-0.188s-0.25-0.128-0.423-0.183c-0.17-0.054-0.378-0.082-0.625-0.082-0.224 0-0.438 0.035-0.639 0.106-0.199 0.067-0.373 0.164-0.524 0.288-0.147 0.125-0.266 0.274-0.356 0.447-0.087 0.17-0.13 0.357-0.13 0.563 0 0.202 0.034 0.386 0.101 0.553s0.157 0.316 0.269 0.447c0.112 0.131 0.242 0.245 0.389 0.341s0.301 0.176 0.462 0.24c0.16 0.061 0.321 0.107 0.481 0.139 0.163 0.029 0.317 0.043 0.462 0.043 0.244 0 0.481-0.018 0.712-0.053 0.234-0.038 0.463-0.109 0.688-0.212 0.228-0.103 0.45-0.244 0.668-0.423s0.434-0.413 0.649-0.702c0.215-0.288 0.426-0.636 0.635-1.043 0.212-0.407 0.423-0.888 0.635-1.442 0.064-0.167 0.127-0.346 0.188-0.538s0.123-0.386 0.188-0.582c-0.054-0.282-0.095-0.522-0.12-0.721-0.022-0.199-0.034-0.364-0.034-0.495 0-0.141 0.011-0.253 0.034-0.337s0.051-0.146 0.086-0.188c0.035-0.045 0.074-0.072 0.115-0.082 0.042-0.013 0.082-0.019 0.12-0.019 0.032 0 0.067 0.006 0.106 0.019 0.042 0.013 0.079 0.042 0.111 0.086 0.035 0.042 0.064 0.104 0.087 0.188s0.034 0.195 0.034 0.337c0 0.154-0.014 0.332-0.043 0.534s-0.072 0.425-0.13 0.668c0.042 0.195 0.090 0.413 0.144 0.654s0.111 0.49 0.168 0.75c0.058 0.256 0.117 0.519 0.178 0.788s0.12 0.532 0.178 0.788 0.112 0.502 0.163 0.735c0.055 0.234 0.104 0.446 0.149 0.635 0.087-0.218 0.192-0.481 0.317-0.788 0.125-0.311 0.264-0.639 0.418-0.986 0.154-0.349 0.316-0.703 0.486-1.062 0.173-0.362 0.349-0.704 0.529-1.024 0.253-0.455 0.486-0.845 0.697-1.168 0.212-0.327 0.394-0.596 0.548-0.808s0.274-0.367 0.361-0.466c0.090-0.103 0.138-0.159 0.144-0.168 0.035-0.035 0.079-0.053 0.13-0.053 0.054 0 0.098 0.019 0.13 0.058 0.035 0.035 0.053 0.077 0.053 0.125 0 0.022-0.005 0.045-0.014 0.067 0 0.003-0.019 0.051-0.058 0.144-0.035 0.090-0.082 0.215-0.139 0.375-0.054 0.157-0.115 0.343-0.183 0.558-0.067 0.212-0.133 0.441-0.197 0.688-0.064 0.244-0.122 0.5-0.173 0.769-0.048 0.266-0.083 0.532-0.106 0.798-0.010 0.122-0.018 0.25-0.024 0.385-0.006 0.131-0.010 0.264-0.010 0.399 0 0.212 0.010 0.425 0.029 0.639s0.051 0.422 0.096 0.62c0.045 0.199 0.106 0.386 0.183 0.562 0.077 0.173 0.171 0.325 0.284 0.457s0.245 0.237 0.399 0.317c0.157 0.080 0.338 0.123 0.543 0.13 0.051 0.003 0.091 0.026 0.12 0.067 0.032 0.038 0.048 0.080 0.048 0.125s-0.018 0.085-0.053 0.12c-0.035 0.035-0.077 0.053-0.125 0.053-0.051 0-0.103-0.005-0.154-0.014-0.231-0.032-0.434-0.098-0.611-0.197-0.176-0.103-0.329-0.228-0.457-0.375-0.128-0.151-0.236-0.321-0.322-0.51-0.083-0.192-0.151-0.397-0.202-0.615s-0.088-0.444-0.111-0.678c-0.019-0.237-0.029-0.476-0.029-0.716 0-0.285 0.014-0.57 0.043-0.856s0.067-0.563 0.115-0.832c0.048-0.272 0.104-0.535 0.168-0.788s0.13-0.489 0.197-0.707zM69.498 23.51c-0.013 0.026-0.040 0.080-0.082 0.163-0.038 0.080-0.090 0.173-0.154 0.279-0.061 0.106-0.133 0.216-0.216 0.332s-0.176 0.221-0.279 0.317c-0.103 0.096-0.213 0.176-0.332 0.24-0.119 0.061-0.244 0.091-0.375 0.091-0.186 0-0.343-0.059-0.471-0.178-0.125-0.119-0.216-0.268-0.274-0.447-0.109 0.183-0.239 0.329-0.389 0.438-0.151 0.106-0.301 0.159-0.452 0.159-0.119 0-0.226-0.021-0.322-0.063-0.096-0.045-0.178-0.106-0.245-0.183-0.067-0.080-0.12-0.173-0.159-0.279-0.035-0.106-0.053-0.221-0.053-0.346 0-0.25 0.042-0.47 0.125-0.659 0.086-0.192 0.195-0.353 0.327-0.481s0.276-0.224 0.433-0.288c0.16-0.064 0.314-0.096 0.462-0.096 0.099 0 0.191 0.014 0.274 0.043 0.083 0.026 0.154 0.054 0.212 0.087 0.061 0.032 0.107 0.063 0.139 0.091 0.032 0.026 0.050 0.040 0.053 0.043 0.035 0.042 0.053 0.085 0.053 0.13 0 0.048-0.018 0.091-0.053 0.13-0.035 0.035-0.077 0.053-0.125 0.053-0.051 0-0.095-0.018-0.13-0.053-0.006-0.006-0.021-0.018-0.043-0.034-0.022-0.019-0.053-0.038-0.091-0.058s-0.085-0.035-0.139-0.048c-0.051-0.016-0.111-0.024-0.178-0.024-0.099 0-0.205 0.022-0.317 0.067s-0.215 0.115-0.308 0.212c-0.093 0.093-0.171 0.212-0.236 0.356-0.061 0.141-0.091 0.309-0.091 0.505 0 0.061 0.006 0.123 0.019 0.188 0.013 0.061 0.035 0.117 0.067 0.168s0.075 0.093 0.13 0.125c0.054 0.032 0.122 0.048 0.202 0.048 0.058 0 0.123-0.019 0.197-0.058 0.077-0.038 0.149-0.098 0.216-0.178 0.070-0.080 0.133-0.181 0.188-0.303 0.058-0.122 0.098-0.266 0.12-0.433 0.006-0.045 0.027-0.082 0.063-0.111 0.035-0.032 0.077-0.048 0.125-0.048 0.045 0 0.083 0.018 0.115 0.053 0.035 0.035 0.054 0.075 0.058 0.12 0.003 0.061 0.010 0.147 0.019 0.26 0.010 0.109 0.030 0.218 0.063 0.327 0.035 0.109 0.086 0.203 0.154 0.284s0.16 0.12 0.279 0.12c0.077 0 0.152-0.021 0.226-0.063 0.077-0.042 0.151-0.096 0.221-0.163 0.074-0.071 0.143-0.149 0.207-0.236 0.067-0.090 0.128-0.18 0.183-0.269s0.103-0.176 0.144-0.26c0.042-0.083 0.077-0.155 0.106-0.216 0.016-0.035 0.038-0.063 0.067-0.082 0.032-0.019 0.066-0.029 0.101-0.029 0.054 0 0.098 0.021 0.13 0.063 0.035 0.038 0.053 0.080 0.053 0.125 0 0.022-0.005 0.045-0.014 0.067zM70.907 25.322c0.603-0.785 1.021-1.437 1.255-1.957 0.016-0.035 0.037-0.061 0.062-0.077 0.029-0.019 0.061-0.029 0.096-0.029 0.054 0 0.099 0.019 0.135 0.058 0.035 0.035 0.053 0.077 0.053 0.125 0 0.022-0.005 0.045-0.014 0.067-0.141 0.32-0.341 0.678-0.601 1.072s-0.588 0.84-0.986 1.337c0 0.202 0.002 0.404 0.005 0.606s0.005 0.423 0.005 0.663c0 0.24-0.006 0.478-0.019 0.712-0.010 0.237-0.029 0.462-0.058 0.673-0.029 0.215-0.069 0.412-0.12 0.591-0.048 0.183-0.112 0.34-0.192 0.471-0.077 0.135-0.171 0.239-0.284 0.313-0.109 0.077-0.239 0.115-0.389 0.115-0.215 0-0.38-0.082-0.495-0.245s-0.173-0.396-0.173-0.697c0-0.16 0.014-0.335 0.043-0.524 0.032-0.186 0.077-0.378 0.135-0.577s0.127-0.401 0.207-0.606c0.083-0.202 0.175-0.399 0.274-0.591s0.207-0.377 0.322-0.553c0.119-0.176 0.244-0.337 0.375-0.481 0.003-0.224 0.005-0.447 0.005-0.668 0.003-0.221 0.008-0.425 0.014-0.611-0.096 0.122-0.212 0.218-0.346 0.288-0.131 0.070-0.263 0.106-0.394 0.106-0.112 0-0.215-0.021-0.308-0.063-0.090-0.045-0.167-0.106-0.231-0.183-0.064-0.080-0.114-0.173-0.149-0.279s-0.053-0.221-0.053-0.346c0-0.25 0.042-0.47 0.125-0.659 0.086-0.192 0.195-0.353 0.327-0.481s0.276-0.224 0.433-0.288c0.16-0.064 0.314-0.096 0.462-0.096 0.099 0 0.191 0.013 0.274 0.038s0.154 0.054 0.212 0.086c0.061 0.032 0.107 0.063 0.139 0.091s0.050 0.045 0.053 0.048c0.035 0.038 0.053 0.082 0.053 0.13s-0.018 0.091-0.053 0.13c-0.035 0.035-0.077 0.053-0.125 0.053-0.045 0-0.088-0.018-0.13-0.053-0.013-0.010-0.031-0.022-0.053-0.038-0.019-0.019-0.046-0.038-0.082-0.058-0.032-0.019-0.072-0.035-0.12-0.048-0.045-0.013-0.099-0.019-0.163-0.019-0.096 0-0.202 0.022-0.317 0.067-0.115 0.042-0.223 0.109-0.322 0.202s-0.183 0.213-0.25 0.361c-0.067 0.144-0.101 0.319-0.101 0.524 0 0.154 0.034 0.279 0.101 0.375 0.067 0.093 0.171 0.14 0.313 0.14 0.067 0 0.138-0.019 0.212-0.058 0.077-0.038 0.151-0.098 0.221-0.178s0.131-0.181 0.183-0.303c0.054-0.122 0.093-0.266 0.115-0.433 0.006-0.045 0.027-0.082 0.063-0.111 0.035-0.032 0.077-0.048 0.125-0.048 0.054 0 0.096 0.019 0.125 0.058 0.032 0.038 0.048 0.082 0.048 0.13 0 0.003-0.002 0.053-0.005 0.149-0.003 0.093-0.006 0.218-0.010 0.375s-0.008 0.34-0.014 0.548c-0.003 0.205-0.006 0.423-0.010 0.654zM70.542 26.375c-0.151 0.208-0.287 0.434-0.409 0.678-0.122 0.247-0.226 0.495-0.312 0.745s-0.154 0.492-0.202 0.726c-0.045 0.237-0.067 0.449-0.067 0.635 0 0.119 0.010 0.213 0.029 0.284 0.022 0.071 0.048 0.125 0.077 0.163 0.032 0.038 0.066 0.064 0.101 0.077 0.038 0.013 0.074 0.019 0.106 0.019 0.099 0 0.186-0.040 0.26-0.12s0.136-0.188 0.188-0.322c0.051-0.131 0.093-0.284 0.125-0.457s0.056-0.353 0.072-0.538c0.016-0.183 0.027-0.365 0.034-0.548s0.010-0.351 0.010-0.505c0-0.138 0-0.276 0-0.413s-0.003-0.279-0.010-0.423zM72.95 21.077c0 0.122-0.043 0.226-0.13 0.313-0.083 0.083-0.186 0.125-0.308 0.125s-0.226-0.042-0.313-0.125c-0.083-0.087-0.125-0.191-0.125-0.313 0-0.061 0.011-0.117 0.034-0.168 0.022-0.054 0.053-0.101 0.091-0.139 0.042-0.042 0.088-0.074 0.139-0.096 0.054-0.022 0.112-0.034 0.173-0.034s0.117 0.011 0.168 0.034c0.054 0.022 0.101 0.054 0.139 0.096 0.042 0.038 0.074 0.085 0.096 0.139 0.022 0.051 0.034 0.107 0.034 0.168zM72.171 23.894c0-0.462 0.029-0.921 0.087-1.38 0.006-0.045 0.026-0.083 0.058-0.115 0.035-0.035 0.080-0.053 0.135-0.053 0.048 0 0.088 0.019 0.12 0.058 0.032 0.035 0.048 0.077 0.048 0.125 0 0.019-0.005 0.077-0.014 0.173-0.006 0.096-0.016 0.212-0.029 0.346-0.010 0.131-0.019 0.272-0.029 0.423-0.006 0.147-0.010 0.284-0.010 0.409 0 0.17 0.016 0.308 0.048 0.413 0.035 0.103 0.079 0.183 0.13 0.24 0.054 0.058 0.111 0.096 0.168 0.115 0.061 0.019 0.119 0.029 0.173 0.029 0.090 0 0.183-0.032 0.279-0.096s0.194-0.154 0.293-0.269c0.103-0.115 0.205-0.253 0.308-0.413 0.103-0.164 0.204-0.345 0.303-0.543 0.016-0.032 0.038-0.056 0.067-0.072 0.029-0.019 0.061-0.029 0.096-0.029 0.051 0 0.093 0.019 0.125 0.058 0.035 0.038 0.053 0.080 0.053 0.125 0 0.032-0.006 0.059-0.019 0.082-0.038 0.074-0.087 0.163-0.144 0.269s-0.123 0.215-0.197 0.327c-0.074 0.112-0.156 0.224-0.245 0.337-0.086 0.109-0.179 0.208-0.279 0.298-0.099 0.086-0.204 0.157-0.313 0.212s-0.219 0.082-0.332 0.082c-0.144 0-0.271-0.030-0.38-0.091s-0.202-0.143-0.279-0.245c-0.074-0.103-0.13-0.223-0.168-0.361-0.035-0.141-0.053-0.292-0.053-0.452zM72.681 21.077c0-0.045-0.018-0.083-0.053-0.115-0.032-0.035-0.070-0.053-0.115-0.053s-0.083 0.018-0.115 0.053c-0.032 0.032-0.048 0.070-0.048 0.115s0.016 0.083 0.048 0.115c0.032 0.032 0.070 0.048 0.115 0.048s0.083-0.016 0.115-0.048c0.035-0.032 0.053-0.070 0.053-0.115zM77.378 23.519c-0.019 0.035-0.053 0.099-0.101 0.192-0.045 0.093-0.107 0.199-0.188 0.317-0.077 0.115-0.17 0.236-0.279 0.361s-0.234 0.24-0.375 0.346c-0.141 0.103-0.3 0.188-0.476 0.255-0.173 0.067-0.362 0.101-0.567 0.101-0.183 0-0.345-0.034-0.486-0.101-0.141-0.064-0.261-0.155-0.361-0.274-0.099-0.122-0.175-0.264-0.226-0.428s-0.077-0.345-0.077-0.543c0-0.192 0.027-0.372 0.082-0.538 0.054-0.17 0.128-0.317 0.221-0.442 0.096-0.125 0.207-0.223 0.332-0.293 0.125-0.074 0.258-0.111 0.399-0.111 0.106 0 0.202 0.019 0.288 0.058 0.087 0.035 0.159 0.083 0.216 0.144 0.061 0.061 0.107 0.128 0.139 0.202 0.035 0.074 0.053 0.147 0.053 0.221 0 0.070-0.010 0.136-0.029 0.197-0.016 0.061-0.038 0.115-0.067 0.163-0.026 0.045-0.056 0.082-0.091 0.111-0.035 0.026-0.070 0.038-0.106 0.038-0.054 0-0.099-0.018-0.135-0.053-0.032-0.035-0.048-0.079-0.048-0.13 0-0.026 0.005-0.048 0.014-0.067 0.013-0.019 0.026-0.038 0.038-0.058 0.016-0.022 0.029-0.048 0.038-0.077 0.013-0.032 0.019-0.072 0.019-0.12 0-0.067-0.032-0.128-0.096-0.183-0.061-0.054-0.139-0.082-0.236-0.082-0.090 0-0.176 0.027-0.26 0.082-0.080 0.054-0.151 0.128-0.212 0.221-0.061 0.090-0.111 0.197-0.149 0.322-0.035 0.122-0.053 0.252-0.053 0.389 0 0.131 0.016 0.256 0.048 0.375s0.080 0.224 0.144 0.317c0.064 0.090 0.144 0.162 0.24 0.216 0.099 0.054 0.216 0.082 0.351 0.082 0.173 0 0.333-0.030 0.481-0.091 0.147-0.064 0.282-0.144 0.404-0.24s0.229-0.2 0.322-0.312c0.093-0.115 0.171-0.223 0.236-0.322 0.067-0.103 0.119-0.191 0.154-0.264 0.038-0.077 0.061-0.125 0.067-0.144 0.013-0.032 0.034-0.056 0.063-0.072 0.032-0.019 0.066-0.029 0.101-0.029 0.054 0 0.098 0.019 0.13 0.058 0.035 0.038 0.053 0.082 0.053 0.13 0 0.019-0.006 0.045-0.019 0.077z"></path>
</symbol>
<symbol id="icon-search" viewBox="0 0 32 32">
<path stroke-linejoin="miter" stroke-linecap="butt" stroke-miterlimit="4" stroke-width="4" d="M24.087 13.043c0 6.099-4.944 11.043-11.043 11.043s-11.043-4.944-11.043-11.043c0-6.099 4.944-11.043 11.043-11.043s11.043 4.944 11.043 11.043z"></path>
<path d="M28.586 31.414c0.781 0.781 2.047 0.781 2.828 0s0.781-2.047 0-2.828l-2.828 2.828zM22.936 20.108l-1.414-1.414-2.828 2.828 1.414 1.414 2.828-2.828zM31.414 28.586l-8.478-8.478-2.828 2.828 8.478 8.478 2.828-2.828z"></path>
</symbol>
</defs>
</svg>