<svg aria-hidden="true" style="position: absolute; width: 0; height: 0; overflow: hidden;" version="1.1" xmlns="http://www.w3.org/2000/svg" xmlns:xlink="http://www.w3.org/1999/xlink">
<defs>
<symbol id="icon-logo" viewBox="0 0 78 32">
<path stroke-linejoin="round" stroke-linecap="round" stroke-miterlimit="4" stroke-width="1.641" d="M9.026 9.613l-8.205 8.205 8.205 8.205"></path>
<path stroke-linejoin="round" stroke-linecap="round" stroke-miterlimit="4" stroke-width="1.641" d="M25.436 9.613l8.205 8.205-8.205 8.205"></path>
<path d="M20.131 3.553l-7.046 26.294c-0.096 0.357-0.463 0.569-0.82 0.474s-0.569-0.463-0.474-0.82l7.046-26.294c0.096-0.357 0.463-0.569 0.82-0.474s0.569 0.463 0.474 0.82z"></path>
<path d="M18.837 3.206c0.096-0.357 0.463-0.569 0.82-0.474s0.569 0.463 0.474 0.82l-0.858 3.203-1.294-0.347 0.858-3.203z"></path>
<path stroke-linejoin="miter" stroke-linecap="round" stroke-miterlimit="4" stroke-width="0.8205" d="M21.083 5.177l2.588 0.693"></path>
<path stroke-linejoin="miter" stroke-linecap="round" stroke-miterlimit="4" stroke-width="0.8205" d="M14.613 3.443l2.588 0.693"></path>
<path stroke-linejoin="miter" stroke-linecap="round" stroke-miterlimit="4" stroke-width="0.8205" d="M16.12 0.409l1.344 2.305"></path>
<path stroke-linejoin="miter" stroke-linecap="round" stroke-miterlimit="4" stroke-width="0.8205" d="M14.43 6.715l2.316-1.324"></path>
<path stroke-linejoin="miter" stroke-linecap="round" stroke-miterlimit="4" stroke-width="0.8205" d="M20.739 6.46l1.344 2.305"></path>
<path stroke-linejoin="miter" stroke-linecap="round" stroke-miterlimit="4" stroke-width="0.8205" d="M21.456 3.784l2.316-1.324"></path>
<path d="M45.141 11.782c-0.683 0-1.3-0.151-1.851-0.453-0.545-0.302-0.975-0.719-1.29-1.25-0.309-0.538-0.463-1.139-0.463-1.802s0.154-1.26 0.463-1.792c0.315-0.538 0.748-0.958 1.3-1.26s1.168-0.453 1.851-0.453c0.512 0 0.985 0.085 1.418 0.256s0.801 0.42 1.103 0.748l-0.463 0.463c-0.538-0.545-1.218-0.817-2.038-0.817-0.545 0-1.040 0.125-1.487 0.374s-0.798 0.591-1.054 1.024c-0.249 0.433-0.374 0.919-0.374 1.457s0.125 1.024 0.374 1.457c0.256 0.433 0.607 0.775 1.054 1.024s0.942 0.374 1.487 0.374c0.827 0 1.506-0.276 2.038-0.827l0.463 0.463c-0.302 0.328-0.673 0.581-1.113 0.758-0.433 0.171-0.906 0.256-1.418 0.256zM50.964 11.772c-0.499 0-0.949-0.112-1.349-0.335-0.4-0.23-0.715-0.545-0.945-0.945s-0.345-0.853-0.345-1.359c0-0.505 0.115-0.958 0.345-1.359s0.545-0.712 0.945-0.935c0.4-0.223 0.85-0.335 1.349-0.335s0.949 0.112 1.349 0.335c0.4 0.223 0.712 0.535 0.935 0.935 0.23 0.4 0.345 0.853 0.345 1.359s-0.115 0.958-0.345 1.359c-0.223 0.4-0.535 0.716-0.935 0.945-0.4 0.223-0.85 0.335-1.349 0.335zM50.964 11.152c0.368 0 0.696-0.082 0.985-0.246 0.295-0.171 0.525-0.41 0.689-0.719s0.246-0.66 0.246-1.054c0-0.394-0.082-0.745-0.246-1.054s-0.394-0.545-0.689-0.709c-0.289-0.171-0.617-0.256-0.985-0.256s-0.699 0.085-0.994 0.256c-0.289 0.164-0.519 0.4-0.689 0.709-0.164 0.309-0.246 0.66-0.246 1.054s0.082 0.745 0.246 1.054c0.171 0.309 0.4 0.548 0.689 0.719 0.295 0.164 0.627 0.246 0.994 0.246zM59.746 4.417v7.306h-0.67v-1.024c-0.21 0.348-0.489 0.614-0.837 0.798-0.341 0.184-0.729 0.276-1.162 0.276-0.486 0-0.926-0.112-1.319-0.335s-0.702-0.535-0.926-0.935c-0.223-0.4-0.335-0.857-0.335-1.369s0.112-0.968 0.335-1.369c0.223-0.4 0.532-0.709 0.926-0.926 0.394-0.223 0.834-0.335 1.319-0.335 0.42 0 0.798 0.089 1.132 0.266 0.341 0.171 0.62 0.423 0.837 0.758v-3.111h0.699zM57.137 11.152c0.361 0 0.686-0.082 0.975-0.246 0.295-0.171 0.525-0.41 0.689-0.719 0.171-0.309 0.256-0.66 0.256-1.054s-0.085-0.745-0.256-1.054c-0.164-0.309-0.394-0.545-0.689-0.709-0.289-0.171-0.614-0.256-0.975-0.256-0.368 0-0.699 0.085-0.994 0.256-0.289 0.164-0.519 0.4-0.689 0.709-0.164 0.309-0.246 0.66-0.246 1.054s0.082 0.745 0.246 1.054c0.171 0.309 0.4 0.548 0.689 0.719 0.295 0.164 0.627 0.246 0.994 0.246zM61.693 6.544h0.699v5.179h-0.699v-5.179zM62.047 5.411c-0.144 0-0.266-0.049-0.364-0.148s-0.148-0.217-0.148-0.354c0-0.131 0.049-0.246 0.148-0.345s0.22-0.148 0.364-0.148c0.144 0 0.266 0.049 0.364 0.148 0.098 0.092 0.148 0.204 0.148 0.335 0 0.144-0.049 0.266-0.148 0.364s-0.22 0.148-0.364 0.148zM66.976 6.504c0.65 0 1.165 0.19 1.546 0.571 0.387 0.374 0.581 0.922 0.581 1.644v3.003h-0.699v-2.934c0-0.538-0.135-0.949-0.404-1.231s-0.653-0.423-1.152-0.423c-0.558 0-1.001 0.167-1.329 0.502-0.322 0.328-0.482 0.784-0.482 1.369v2.718h-0.699v-5.179h0.67v0.955c0.19-0.315 0.453-0.558 0.788-0.729 0.341-0.177 0.735-0.266 1.182-0.266zM75.815 6.544v4.549c0 0.88-0.217 1.529-0.65 1.95-0.427 0.427-1.073 0.64-1.94 0.64-0.479 0-0.935-0.072-1.369-0.217-0.427-0.138-0.775-0.332-1.044-0.581l0.354-0.532c0.249 0.223 0.551 0.397 0.906 0.522 0.361 0.125 0.738 0.187 1.132 0.187 0.656 0 1.139-0.154 1.447-0.463 0.308-0.302 0.463-0.775 0.463-1.418v-0.66c-0.217 0.328-0.502 0.578-0.857 0.748-0.348 0.171-0.735 0.256-1.162 0.256-0.486 0-0.929-0.105-1.329-0.315-0.394-0.217-0.706-0.515-0.935-0.896-0.223-0.387-0.335-0.824-0.335-1.31s0.112-0.919 0.335-1.3c0.23-0.381 0.542-0.676 0.935-0.886s0.837-0.315 1.329-0.315c0.44 0 0.837 0.089 1.191 0.266s0.64 0.433 0.857 0.768v-0.994h0.67zM73.166 10.905c0.374 0 0.712-0.079 1.014-0.236 0.302-0.164 0.535-0.391 0.699-0.679 0.171-0.289 0.256-0.617 0.256-0.985s-0.085-0.693-0.256-0.975c-0.164-0.289-0.397-0.512-0.699-0.67-0.295-0.164-0.633-0.246-1.014-0.246-0.374 0-0.712 0.079-1.014 0.236-0.295 0.158-0.528 0.381-0.699 0.67-0.164 0.289-0.246 0.617-0.246 0.985s0.082 0.696 0.246 0.985c0.171 0.289 0.404 0.515 0.699 0.679 0.302 0.158 0.64 0.236 1.014 0.236z"></path>
<path d="M63.965 18.659c-0.138 0.202-0.292 0.444-0.462 0.726s-0.351 0.598-0.543 0.947c-0.163 0.292-0.325 0.603-0.486 0.933-0.157 0.327-0.308 0.652-0.452 0.976-0.144 0.32-0.277 0.63-0.399 0.928-0.122 0.295-0.228 0.556-0.317 0.784-0.090 0.224-0.16 0.405-0.212 0.543-0.051 0.135-0.077 0.204-0.077 0.207-0.032 0.080-0.090 0.12-0.173 0.12-0.042 0-0.079-0.013-0.111-0.038-0.032-0.029-0.053-0.064-0.062-0.106 0-0.003-0.016-0.071-0.048-0.202-0.029-0.135-0.069-0.313-0.12-0.534-0.051-0.224-0.111-0.481-0.178-0.769-0.064-0.292-0.133-0.595-0.207-0.909-0.070-0.317-0.143-0.638-0.216-0.962s-0.143-0.631-0.207-0.923c-0.215 0.606-0.431 1.143-0.649 1.611-0.215 0.465-0.436 0.87-0.663 1.216-0.228 0.343-0.463 0.631-0.707 0.865-0.24 0.234-0.494 0.423-0.76 0.567-0.263 0.141-0.54 0.242-0.832 0.303-0.288 0.061-0.595 0.091-0.918 0.091-0.167 0-0.345-0.019-0.534-0.058-0.189-0.035-0.377-0.091-0.563-0.168s-0.364-0.173-0.534-0.288c-0.17-0.115-0.321-0.252-0.452-0.409-0.131-0.16-0.236-0.34-0.313-0.538-0.077-0.202-0.115-0.426-0.115-0.673 0-0.26 0.054-0.497 0.163-0.712 0.109-0.218 0.256-0.404 0.442-0.558 0.186-0.157 0.401-0.279 0.644-0.365 0.247-0.086 0.506-0.13 0.779-0.13 0.199 0 0.377 0.018 0.534 0.053 0.16 0.032 0.301 0.074 0.423 0.125s0.226 0.107 0.312 0.168 0.159 0.117 0.216 0.168c0.058 0.051 0.099 0.096 0.125 0.135 0.026 0.035 0.040 0.053 0.043 0.053 0.019 0.035 0.029 0.069 0.029 0.101 0 0.045-0.018 0.087-0.053 0.125-0.032 0.038-0.075 0.058-0.13 0.058-0.064 0-0.115-0.027-0.154-0.082-0.003-0.003-0.029-0.032-0.077-0.087-0.048-0.058-0.127-0.12-0.236-0.188s-0.25-0.128-0.423-0.183c-0.17-0.054-0.378-0.082-0.625-0.082-0.224 0-0.438 0.035-0.639 0.106-0.199 0.067-0.373 0.164-0.524 0.288-0.147 0.125-0.266 0.274-0.356 0.447-0.087 0.17-0.13 0.357-0.13 0.563 0 0.202 0.034 0.386 0.101 0.553s0.157 0.316 0.269 0.447c0.112 0.131 0.242 0.245 0.389 0.341s0.301 0.176 0.462 0.24c0.16 0.061 0.321 0.107 0.481 0.139 0.163 0.029 0.317 0.043 0.462 0.043 0.244 0 0.481-0.018 0.712-0.053 0.234-0.038 0.463-0.109 0.688-0.212 0.228-0.103 0.45-0.244 0.668-0.423s0.434-0.413 0.649-0.702c0.215-0.288 0.426-0.636 0.635-1.043 0.212-0.407 0.423-0.888 0.635-1.442 0.064-0.167 0.127-0.346 0.188-0.538s0.123-0.386 0.188-0.582c-0.054-0.282-0.095-0.522-0.12-0.721-0.022-0.199-0.034-0.364-0.034-0.495 0-0.141 0.011-0.253 0.034-0.337s0.051-0.146 0.086-0.188c0.035-0.045 0.074-0.072 0.115-0.082 0.042-0.013 0.082-0.019 0.12-0.019 0.032 0 0.067 0.006 0.106 0.019 0.042 0.013 0.079 0.042 0.111 0.086 0.035 0.042 0.064 0.104 0.087 0.188s0.034 0.195 0.034 0.337c0 0.154-0.014 0.332-0.043 0.534s-0.072 0.425-0.13 0.668c0.042 0.195 0.090 0.413 0.144 0.654s0.111 0.49 0.168 0.75c0.058 0.256 0.117 0.519 0.178 0.788s0.12 0.532 0.178 0.788 0.112 0.502 0.163 0.735c0.055 0.234 0.104 0.446 0.149 0.635 0.087-0.218 0.192-0.481 0.317-0.788 0.125-0.311 0.264-0.639 0.418-0.986 0.154-0.349 0.316-0.703 0.486-1.062 0.173-0.362 0.349-0.704 0.529-1.024 0.253-0.455 0.486-0.845 0.697-1.168 0.212-0.327 0.394-0.596 0.548-0.808s0.274-0.367 0.361-0.466c0.090-0.103 0.138-0.159 0.144-0.168 0.035-0.035 0.079-0.053 0.13-0.053 0.054 0 0.098 0.019 0.13 0.058 0.035 0.035 0.053 0.077 0.053 0.125 0 0.022-0.005 0.045-0.014 0.067 0 0.003-0.019 0.051-0.058 0.144-0.035 0.090-0.082 0.215-0.139 0.375-0.054 0.157-0.115 0.343-0.183 0.558-0.067 0.212-0.133 0.441-0.197 0.688-0.064 0.244-0.122 0.5-0.173 0.769-0.048 0.266-0.083 0.532-0.106 0.798-0.010 0.122-0.018 0.25-0.024 0.385-0.006 0.131-0.010 0.264-0.010 0.399 0 0.212 0.010 0.425 0.029 0.639s0.051 0.422 0.096 0.62c0.045 0.199 0.106 0.386 0.183 0.562 0.077 0.173 0.171 0.325 0.284 0.457s0.245 0.237 0.399 0.317c0.157 0.080 0.338 0.123 0.543 0.13 0.051 0.003 0.091 0.026 0.12 0.067 0.032 0.038 0.048 0.080 0.048 0.125s-0.018 0.085-0.053 0.12c-0.035 0.035-0.077 0.053-0.125 0.053-0.051 0-0.103-0.005-0.154-0.014-0.231-0.032-0.434-0.098-0.611-0.197-0.176-0.103-0.329-0.228-0.457-0.375-0.128-0.151-0.236-0.321-0.322-0.51-0.083-0.192-0.151-0.397-0.202-0.615s-0.088-0.444-0.111-0.678c-0.019-0.237-0.029-0.476-0.029-0.716 0-0.285 0.014-0.57 0.043-0.856s0.067-0.563 0.115-0.832c0.048-0.272 0.104-0.535 0.168-0.788s0.13-0.489 0.197-0.707zM69.498 23.51c-0.013 0.026-0.040 0.080-0.082 0.163-0.038 0.080-0.090 0.173-0.154 0.279-0.061 0.106-0.133 0.216-0.216 0.332s-0.176 0.221-0.279 0.317c-0.103 0.096-0.213 0.176-0.332 0.24-0.119 0.061-0.244 0.091-0.375 0.091-0.186 0-0.343-0.059-0.471-0.178-0.125-0.119-0.216-0.268-0.274-0.447-0.109 0.183-0.239 0.329-0.389 0.438-0.151 0.106-0.301 0.159-0.452 0.159-0.119 0-0.226-0.021-0.322-0.063-0.096-0.045-0.178-0.106-0.245-0.183-0.067-0.080-0.12-0.173-0.159-0.279-0.035-0.106-0.053-0.221-0.053-0.346 0-0.25 0.042-0.47 0.125-0.659 0.086-0.192 0.195-0.353 0.327-0.481s0.276-0.224 0.433-0.288c0.16-0.064 0.314-0.096 0.462-0.096 0.099 0 0.191 0.014 0.274 0.043 0.083 0.026 0.154 0.054 0.212 0.087 0.061 0.032 0.107 0.063 0.139 0.091 0.032 0.026 0.050 0.040 0.053 0.043 0.035 0.042 0.053 0.085 0.053 0.13 0 0.048-0.018 0.091-0.053 0.13-0.035 0.035-0.077 0.053-0.125 0.053-0.051 0-0.095-0.018-0.13-0.053-0.006-0.006-0.021-0.018-0.043-0.034-0.022-0.019-0.053-0.038-0.091-0.058s-0.085-0.035-0.139-0.048c-0.051-0.016-0.111-0.024-0.178-0.024-0.099 0-0.205 0.022-0.317 0.067s-0.215 0.115-0.308 0.212c-0.093 0.093-0.171 0.212-0.236 0.356-0.061 0.141-0.091 0.309-0.091 0.505 0 0.061 0.006 0.123 0.019 0.188 0.013 0.061 0.035 0.117 0.067 0.168s0.075 0.093 0.13 0.125c0.054 0.032 0.122 0.048 0.202 0.048 0.058 0 0.123-0.019 0.197-0.058 0.077-0.038 0.149-0.098 0.216-0.178 0.070-0.080 0.133-0.181 0.188-0.303 0.058-0.122 0.098-0.266 0.12-0.433 0.006-0.045 0.027-0.082 0.063-0.111 0.035-0.032 0.077-0.048 0.125-0.048 0.045 0 0.083 0.018 0.115 0.053 0.035 0.035 0.054 0.075 0.058 0.12 0.003 0.061 0.010 0.147 0.019 0.26 0.010 0.109 0.030 0.218 0.063 0.327 0.035 0.109 0.086 0.203 0.154 0.284s0.16 0.12 0.279 0.12c0.077 0 0.152-0.021 0.226-0.063 0.077-0.042 0.151-0.096 0.221-0.163 0.074-0.071 0.143-0.149 0.207-0.236 0.067-0.090 0.128-0.18 0.183-0.269s0.103-0.176 0.144-0.26c0.042-0.083 0.077-0.155 0.106-0.216 0.016-0.035 0.038-0.063 0.067-0.082 0.032-0.019 0.066-0.029 0.101-0.029 0.054 0 0.098 0.021 0.13 0.063 0.035 0.038 0.053 0.080 0.053 0.125 0 0.022-0.005 0.045-0.014 0.067zM70.907 25.322c0.603-0.785 1.021-1.437 1.255-1.957 0.016-0.035 0.037-0.061 0.062-0.077 0.029-0.019 0.061-0.029 0.096-0.029 0.054 0 0.099 0.019 0.135 0.058 0.035 0.035 0.053 0.077 0.053 0.125 0 0.022-0.005 0.045-0.014 0.067-0.141 0.32-0.341 0.678-0.601 1.072s-0.588 0.84-0.986 1.337c0 0.202 0.002 0.404 0.005 0.606s0.005 0.423 0.005 0.663c0 0.24-0.006 0.478-0.019 0.712-0.010 0.237-0.029 0.462-0.058 0.673-0.029 0.215-0.069 0.412-0.12 0.591-0.048 0.183-0.112 0.34-0.192 0.471-0.077 0.135-0.171 0.239-0.284 0.313-0.109 0.077-0.239 0.115-0.389 0.115-0.215 0-0.38-0.082-0.495-0.245s-0.173-0.396-0.173-0.697c0-0.16 0.014-0.335 0.043-0.524 0.032-0.186 0.077-0.378 0.135-0.577s0.127-0.401 0.207-0.606c0.083-0.202 0.175-0.399 0.274-0.591s0.207-0.377 0.322-0.553c0.119-0.176 0.244-0.337 0.375-0.481 0.003-0.224 0.005-0.447 0.005-0.668 0.003-0.221 0.008-0.425 0.014-0.611-0.096 0.122-0.212 0.218-0.346 0.288-0.131 0.070-0.263 0.106-0.394 0.106-0.112 0-0.215-0.021-0.308-0.063-0.090-0.045-0.167-0.106-0.231-0.183-0.064-0.080-0.114-0.173-0.149-0.279s-0.053-0.221-0.053-0.346c0-0.25 0.042-0.47 0.125-0.659 0.086-0.192 0.195-0.353 0.327-0.481s0.276-0.224 0.433-0.288c0.16-0.064 0.314-0.096 0.462-0.096 0.099 0 0.191 0.013 0.274 0.038s0.154 0.054 0.212 0.086c0.061 0.032 0.107 0.063 0.139 0.091s0.050 0.045 0.053 0.048c0.035 0.038 0.053 0.082 0.053 0.13s-0.018 0.091-0.053 0.13c-0.035 0.035-0.077 0.053-0.125 0.053-0.045 0-0.088-0.018-0.13-0.053-0.013-0.010-0.031-0.022-0.053-0.038-0.019-0.019-0.046-0.038-0.082-0.058-0.032-0.019-0.072-0.035-0.12-0.048-0.045-0.013-0.099-0.019-0.163-0.019-0.096 0-0.202 0.022-0.317 0.067-0.115 0.042-0.223 0.109-0.322 0.202s-0.183 0.213-0.25 0.361c-0.067 0.144-0.101 0.319-0.101 0.524 0 0.154 0.034 0.279 0.101 0.375 0.067 0.093 0.171 0.14 0.313 0.14 0.067 0 0.138-0.019 0.212-0.058 0.077-0.038 0.151-0.098 0.221-0.178s0.131-0.181 0.183-0.303c0.054-0.122 0.093-0.266 0.115-0.433 0.006-0.045 0.027-0.082 0.063-0.111 0.035-0.032 0.077-0.048 0.125-0.048 0.054 0 0.096 0.019 0.125 0.058 0.032 0.038 0.048 0.082 0.048 0.13 0 0.003-0.002 0.053-0.005 0.149-0.003 0.093-0.006 0.218-0.010 0.375s-0.008 0.34-0.014 0.548c-0.003 0.205-0.006 0.423-0.010 0.654zM70.542 26.375c-0.151 0.208-0.287 0.434-0.409 0.678-0.122 0.247-0.226 0.495-0.312 0.745s-0.154 0.492-0.202 0.726c-0.045 0.237-0.067 0.449-0.067 0.635 0 0.119 0.010 0.213 0.029 0.284 0.022 0.071 0.048 0.125 0.077 0.163 0.032 0.038 0.066 0.064 0.101 0.077 0.038 0.013 0.074 0.019 0.106 0.019 0.099 0 0.186-0.040 0.26-0.12s0.136-0.188 0.188-0.322c0.051-0.131 0.093-0.284 0.125-0.457s0.056-0.353 0.072-0.538c0.016-0.183 0.027-0.365 0.034-0.548s0.010-0.351 0.010-0.505c0-0.138 0-0.276 0-0.413s-0.003-0.279-0.010-0.423zM72.95 21.077c0 0.122-0.043 0.226-0.13 0.313-0.083 0.083-0.186 0.125-0.308 0.125s-0.226-0.042-0.313-0.125c-0.083-0.087-0.125-0.191-0.125-0.313 0-0.061 0.011-0.117 0.034-0.168 0.022-0.054 0.053-0.101 0.091-0.139 0.042-0.042 0.088-0.074 0.139-0.096 0.054-0.022 0.112-0.034 0.173-0.034s0.117 0.011 0.168 0.034c0.054 0.022 0.101 0.054 0.139 0.096 0.042 0.038 0.074 0.085 0.096 0.139 0.022 0.051 0.034 0.107 0.034 0.168zM72.171 23.894c0-0.462 0.029-0.921 0.087-1.38 0.006-0.045 0.026-0.083 0.058-0.115 0.035-0.035 0.080-0.053 0.135-0.053 0.048 0 0.088 0.019 0.12 0.058 0.032 0.035 0.048 0.077 0.048 0.125 0 0.019-0.005 0.077-0.014 0.173-0.006 0.096-0.016 0.212-0.029 0.346-0.010 0.131-0.019 0.272-0.029 0.423-0.006 0.147-0.010 0.284-0.010 0.409 0 0.17 0.016 0.308 0.048 0.413 0.035 0.103 0.079 0.183 0.13 0.24 0.054 0.058 0.111 0.096 0.168 0.115 0.061 0.019 0.119 0.029 0.173 0.029 0.090 0 0.183-0.032 0.279-0.096s0.194-0.154 0.293-0.269c0.103-0.115 0.205-0.253 0.308-0.413 0.103-0.164 0.204-0.345 0.303-0.543 0.016-0.032 0.038-0.056 0.067-0.072 0.029-0.019 0.061-0.029 0.096-0.029 0.051 0 0.093 0.019 0.125 0.058 0.035 0.038 0.053 0.080 0.053 0.125 0 0.032-0.006 0.059-0.019 0.082-0.038 0.074-0.087 0.163-0.144 0.269s-0.123 0.215-0.197 0.327c-0.074 0.112-0.156 0.224-0.245 0.337-0.086 0.109-0.179 0.208-0.279 0.298-0.099 0.086-0.204 0.157-0.313 0.212s-0.219 0.082-0.332 0.082c-0.144 0-0.271-0.030-0.38-0.091s-0.202-0.143-0.279-0.245c-0.074-0.103-0.13-0.223-0.168-0.361-0.035-0.141-0.053-0.292-0.053-0.452zM72.681 21.077c0-0.045-0.018-0.083-0.053-0.115-0.032-0.035-0.070-0.053-0.115-0.053s-0.083 0.018-0.115 0.053c-0.032 0.032-0.048 0.070-0.048 0.115s0.016 0.083 0.048 0.115c0.032 0.032 0.070 0.048 0.115 0.048s0.083-0.016 0.115-0.048c0.035-0.032 0.053-0.070 0.053-0.115zM77.378 23.519c-0.019 0.035-0.053 0.099-0.101 0.192-0.045 0.093-0.107 0.199-0.188 0.317-0.077 0.115-0.17 0.236-0.279 0.361s-0.234 0.24-0.375 0.346c-0.141 0.103-0.3 0.188-0.476 0.255-0.173 0.067-0.362 0.101-0.567 0.101-0.183 0-0.345-0.034-0.486-0.101-0.141-0.064-0.261-0.155-0.361-0.274-0.099-0.122-0.175-0.264-0.226-0.428s-0.077-0.345-0.077-0.543c0-0.192 0.027-0.372 0.082-0.538 0.054-0.17 0.128-0.317 0.221-0.442 0.096-0.125 0.207-0.223 0.332-0.293 0.125-0.074 0.258-0.111 0.399-0.111 0.106 0 0.202 0.019 0.288 0.058 0.087 0.035 0.159 0.083 0.216 0.144 0.061 0.061 0.107 0.128 0.139 0.202 0.035 0.074 0.053 0.147 0.053 0.221 0 0.070-0.010 0.136-0.029 0.197-0.016 0.061-0.038 0.115-0.067 0.163-0.026 0.045-0.056 0.082-0.091 0.111-0.035 0.026-0.070 0.038-0.106 0.038-0.054 0-0.099-0.018-0.135-0.053-0.032-0.035-0.048-0.079-0.048-0.13 0-0.026 0.005-0.048 0.014-0.067 0.013-0.019 0.026-0.038 0.038-0.058 0.016-0.022 0.029-0.048 0.038-0.077 0.013-0.032 0.019-0.072 0.019-0.12 0-0.067-0.032-0.128-0.096-0.183-0.061-0.054-0.139-0.082-0.236-0.082-0.090 0-0.176 0.027-0.26 0.082-0.080 0.054-0.151 0.128-0.212 0.221-0.061 0.090-0.111 0.197-0.149 0.322-0.035 0.122-0.053 0.252-0.053 0.389 0 0.131 0.016 0.256 0.048 0.375s0.080 0.224 0.144 0.317c0.064 0.090 0.144 0.162 0.24 0.216 0.099 0.054 0.216 0.082 0.351 0.082 0.173 0 0.333-0.030 0.481-0.091 0.147-0.064 0.282-0.144 0.404-0.24s0.229-0.2 0.322-0.312c0.093-0.115 0.171-0.223 0.236-0.322 0.067-0.103 0.119-0.191 0.154-0.264 0.038-0.077 0.061-0.125 0.067-0.144 0.013-0.032 0.034-0.056 0.063-0.072 0.032-0.019 0.066-0.029 0.101-0.029 0.054 0 0.098 0.019 0.13 0.058 0.035 0.038 0.053 0.082 0.053 0.13 0 0.019-0.006 0.045-0.019 0.077z"></path>
</symbol>
<symbol id="icon-search" viewBox="0 0 32 32">
<path stroke-linejoin="miter" stroke-linecap="butt" stroke-miterlimit="4" stroke-width="4" d="M24.087 13.043c0 6.099-4.944 11.043-11.043 11.043s-11.043-4.944-11.043-11.043c0-6.099 4.944-11.043 11.043-11.043s11.043 4.944 11.043 11.043z"></path>
<path d="M28.586 31.414c0.781 0.781 2.047 0.781 2.828 0s0.781-2.047 0-2.828l-2.828 2.828zM22.936 20.108l-1.414-1.414-2.828 2.828 1.414 1.414 2.828-2.828zM31.414 28.586l-8.478-8.478-2.828 2.828 8.478 8.478 2.828-2.828z"></path>
</symbol>
<symbol id="icon-scissors" viewBox="0 0 32 32">
<path d="M22.625 0c0.502 0.19 0.804 0.618 1.046 1.084 0.629 1.407 0.679 2.988 0.329 4.479-0.011 0.047-0.021 0.093-0.033 0.141-0.233 0.967-0.664 1.847-1.096 2.738-0.081 0.166-0.161 0.333-0.241 0.5-0.198 0.413-0.398 0.826-0.599 1.238-0.107 0.22-0.213 0.44-0.318 0.661-0.044 0.091-0.088 0.182-0.131 0.273-0.053 0.111-0.053 0.111-0.106 0.224-0.106 0.172-0.159 0.23-0.351 0.288-0.381-0.013-0.381-0.013-0.559-0.168-0.109-0.238-0.093-0.445-0.005-0.689 0.029-0.058 0.058-0.115 0.087-0.175 0.032-0.066 0.065-0.132 0.098-0.2 0.036-0.071 0.071-0.141 0.108-0.214 0.056-0.113 0.111-0.225 0.167-0.338 0.038-0.078 0.077-0.156 0.115-0.234 0.245-0.497 0.476-1 0.708-1.503 0.282-0.612 0.282-0.612 0.415-0.883 0.759-1.558 1.173-3.328 0.677-5.034-0.093-0.256-0.199-0.503-0.313-0.75-0.042-0.104-0.084-0.208-0.125-0.313-0.041 0-0.082 0-0.125 0-0.011 0.034-0.021 0.069-0.032 0.105-0.11 0.344-0.244 0.662-0.405 0.985-0.024 0.049-0.048 0.097-0.072 0.147-0.051 0.103-0.102 0.207-0.153 0.31-0.136 0.274-0.271 0.549-0.406 0.825-0.027 0.055-0.054 0.109-0.081 0.166-0.216 0.441-0.424 0.885-0.628 1.331-0.337 0.733-0.688 1.459-1.043 2.184-0.027 0.056-0.055 0.112-0.083 0.17-0.107 0.219-0.214 0.437-0.321 0.656-0.388 0.792-0.767 1.588-1.142 2.386-0.021 0.045-0.043 0.091-0.065 0.138-0.109 0.232-0.218 0.464-0.327 0.696-0.187 0.4-0.376 0.799-0.572 1.195-0.030 0.061-0.060 0.121-0.090 0.184-0.054 0.109-0.108 0.218-0.164 0.326-0.023 0.047-0.046 0.094-0.070 0.143-0.020 0.040-0.040 0.080-0.061 0.121-0.082 0.291 0.073 0.549 0.199 0.806 0.035 0.071 0.070 0.143 0.105 0.217 0.037 0.075 0.074 0.15 0.111 0.225 0.216 0.442 0.431 0.883 0.64 1.328 0.031 0.066 0.062 0.132 0.094 0.2 0.067 0.159 0.067 0.159 0.067 0.284 0.041 0 0.082 0 0.125 0 0.023-0.076 0.023-0.076 0.046-0.153 0.095-0.269 0.214-0.522 0.337-0.779 0.025-0.053 0.051-0.106 0.077-0.161 0.053-0.112 0.107-0.225 0.161-0.337 0.081-0.169 0.162-0.339 0.242-0.508 0.127-0.266 0.254-0.531 0.382-0.796 0.061-0.126 0.12-0.253 0.18-0.38 0.048-0.1 0.048-0.1 0.097-0.203 0.026-0.056 0.053-0.112 0.080-0.17 0.096-0.155 0.178-0.235 0.335-0.325 0.216 0.008 0.373 0.019 0.555 0.141 0.092 0.143 0.113 0.253 0.133 0.422-0.042 0.152-0.042 0.152-0.116 0.318-0.029 0.066-0.058 0.132-0.088 0.2-0.036 0.077-0.072 0.155-0.108 0.232-0.031 0.066-0.031 0.066-0.062 0.134-0.17 0.364-0.343 0.727-0.516 1.089-0.051 0.107-0.102 0.214-0.153 0.321-0.025 0.053-0.050 0.106-0.076 0.16-0.051 0.106-0.101 0.212-0.151 0.319-0.129 0.271-0.26 0.541-0.396 0.809-0.027 0.054-0.053 0.107-0.081 0.162-0.051 0.102-0.103 0.203-0.156 0.304-0.115 0.233-0.168 0.34-0.116 0.602 0.158 0.308 0.375 0.579 0.677 0.753 0.299 0.067 0.562 0.106 0.867 0.069 2.1-0.223 4.187 0.14 5.87 1.471 0.099 0.081 0.197 0.162 0.294 0.245 0.032 0.027 0.065 0.055 0.098 0.083 1.695 1.453 2.812 3.564 3.027 5.792 0.107 1.549-0.388 2.832-1.396 4.010-1.034 1.108-2.532 1.885-4.052 1.95-1.507 0.035-2.706-0.335-3.827-1.367-1.149-1.102-1.739-2.585-2.394-4.009-0.331-0.717-0.676-1.426-1.023-2.136-0.255-0.521-0.504-1.045-0.744-1.573-0.357 0.654-0.689 1.315-1 1.992-0.331 0.721-0.672 1.436-1.020 2.148-0.023 0.048-0.047 0.096-0.071 0.146-0.135 0.277-0.27 0.553-0.406 0.829-0.045 0.091-0.090 0.182-0.134 0.274-0.066 0.135-0.133 0.27-0.199 0.404-0.019 0.040-0.039 0.080-0.059 0.121-0.648 1.305-1.685 2.318-3.049 2.837-1.443 0.475-2.953 0.284-4.305-0.369-1.416-0.721-2.526-1.925-3.032-3.44-0.51-1.708 0.046-3.655 0.837-5.19 0.362-0.666 0.799-1.256 1.313-1.813 0.031-0.034 0.062-0.068 0.093-0.103 1.288-1.403 3.173-2.377 5.094-2.46 0.516-0.014 1.025-0.011 1.538 0.048 0.668 0.068 0.668 0.068 1.289-0.144 0.214-0.177 0.394-0.39 0.485-0.654-0.085-0.317-0.229-0.607-0.371-0.901-0.024-0.051-0.048-0.101-0.073-0.153-0.052-0.108-0.104-0.216-0.155-0.324-0.081-0.169-0.161-0.338-0.242-0.507-0.219-0.461-0.439-0.923-0.662-1.382-0.088-0.182-0.175-0.366-0.263-0.548-0.032-0.064-0.063-0.128-0.096-0.194-0.161-0.341-0.251-0.559-0.138-0.927 0.14-0.16 0.224-0.184 0.434-0.215 0.24 0.034 0.327 0.113 0.504 0.277 0.092 0.152 0.092 0.152 0.169 0.326 0.030 0.066 0.060 0.132 0.090 0.201 0.032 0.072 0.064 0.145 0.096 0.219 0.071 0.159 0.143 0.318 0.216 0.476 0.019 0.042 0.038 0.084 0.058 0.127 0.238 0.524 0.493 1.040 0.746 1.556 0.377 0.769 0.746 1.54 1.099 2.319 0.239 0.523 0.503 1.014 0.776 1.525 0.701-0.351 1.403-0.701 2.125-1.063 0-0.194-0.026-0.264-0.11-0.433-0.024-0.049-0.048-0.098-0.073-0.149-0.027-0.053-0.053-0.107-0.080-0.161s-0.055-0.111-0.083-0.168c-0.058-0.119-0.117-0.238-0.176-0.357-0.092-0.186-0.184-0.372-0.275-0.559-0.119-0.243-0.239-0.486-0.359-0.729-0.176-0.357-0.349-0.714-0.52-1.073-0.025-0.053-0.051-0.106-0.077-0.161-0.158-0.332-0.315-0.666-0.471-0.999-0.083-0.177-0.166-0.354-0.249-0.531-0.021-0.045-0.042-0.089-0.063-0.135-0.343-0.73-0.692-1.457-1.046-2.181-0.024-0.049-0.048-0.099-0.073-0.149-0.094-0.192-0.188-0.385-0.281-0.577-0.372-0.763-0.738-1.529-1.098-2.298-0.082-0.175-0.164-0.351-0.247-0.526-0.021-0.044-0.042-0.089-0.063-0.135-0.375-0.8-0.761-1.594-1.15-2.388-0.426-0.87-0.837-1.745-1.241-2.625-0.072-0.153-0.147-0.304-0.224-0.455-0.103-0.211-0.103-0.211-0.103-0.336-0.553 0.501-0.709 1.367-0.761 2.084-0.086 1.812 0.542 3.338 1.336 4.935 0.216 0.436 0.42 0.878 0.624 1.32 0.066 0.143 0.132 0.286 0.198 0.429 0.041 0.090 0.041 0.090 0.083 0.181 0.059 0.126 0.121 0.251 0.184 0.376 0.124 0.253 0.117 0.395 0.085 0.674-0.098 0.156-0.098 0.156-0.25 0.25-0.219 0.031-0.219 0.031-0.438 0-0.255-0.199-0.37-0.461-0.506-0.746-0.024-0.049-0.048-0.098-0.072-0.149-0.077-0.16-0.154-0.32-0.231-0.48-0.053-0.111-0.107-0.222-0.16-0.332-0.133-0.276-0.264-0.552-0.396-0.828-0.067-0.14-0.134-0.28-0.202-0.421-1.011-2.101-1.782-4.372-1.052-6.702 0.241-0.668 0.573-1.377 1.212-1.745 0.275-0.062 0.501-0.076 0.762 0.039 0.292 0.229 0.445 0.507 0.598 0.84 0.019 0.040 0.038 0.081 0.057 0.122 0.041 0.088 0.081 0.175 0.121 0.263 0.11 0.239 0.221 0.478 0.333 0.717 0.023 0.050 0.046 0.1 0.070 0.151 0.256 0.549 0.523 1.093 0.789 1.637 0.322 0.658 0.64 1.318 0.945 1.984 0.373 0.813 0.766 1.615 1.161 2.418 0.382 0.779 0.759 1.559 1.116 2.35 0.234 0.514 0.497 1.010 0.766 1.505 0.449-0.921 0.897-1.842 1.324-2.773 0.365-0.794 0.749-1.579 1.133-2.364 0.322-0.657 0.64-1.315 0.945-1.98 0.401-0.874 0.824-1.737 1.248-2.599 0.027-0.055 0.054-0.109 0.081-0.165 0.053-0.108 0.106-0.216 0.16-0.325 0.133-0.271 0.263-0.543 0.388-0.818 0.025-0.054 0.050-0.109 0.075-0.164 0.047-0.103 0.093-0.205 0.138-0.308 0.247-0.54 0.542-0.715 1.132-0.628zM13.719 18.828c-0.608 0.539-1.248 0.57-2.031 0.547-0.091-0.009-0.183-0.019-0.273-0.031-1.724-0.215-3.394 0.275-4.786 1.291-1.661 1.311-2.789 3.187-3.053 5.301-0.123 1.184 0.191 2.151 0.923 3.082 0.863 1.056 2.088 1.728 3.439 1.92 1.095 0.103 2.081-0.201 2.949-0.863 1.224-1.025 1.812-2.621 2.463-4.037 0.256-0.555 0.521-1.105 0.79-1.653 0.105-0.214 0.208-0.428 0.31-0.642 0.41-0.861 0.41-0.861 0.661-1.227 0.191-0.291 0.345-0.531 0.326-0.889-0.177-0.601-0.48-1.147-0.79-1.688-0.243-0.425-0.447-0.865-0.647-1.312-0.117 0-0.201 0.127-0.281 0.203zM18.32 19.165c-0.044 0.022-0.088 0.045-0.133 0.068-0.075 0.038-0.075 0.038-0.152 0.076-0.054 0.028-0.107 0.055-0.163 0.084s-0.11 0.056-0.167 0.084c-0.177 0.089-0.353 0.179-0.529 0.269-0.12 0.061-0.239 0.121-0.359 0.182-0.294 0.148-0.587 0.298-0.88 0.447 0.293 0.67 0.596 1.334 0.919 1.991 0.336 0.684 0.665 1.371 0.984 2.064 0.355 0.77 0.723 1.533 1.096 2.295 0.212 0.434 0.422 0.869 0.623 1.309 0.567 1.237 1.387 2.257 2.684 2.771 1.034 0.383 2.237 0.273 3.234-0.164 0.648-0.317 1.196-0.697 1.711-1.203 0.044-0.043 0.087-0.086 0.133-0.13 0.698-0.734 1.116-1.656 1.145-2.675-0.074-2.073-1.033-4.026-2.527-5.445-1.514-1.362-3.22-1.802-5.219-1.75-0.264 0.007-0.527 0.012-0.791 0.016-0.059 0.002-0.118 0.004-0.178 0.006-0.426 0.006-0.74-0.095-1.124-0.272-0.176-0.080-0.176-0.080-0.305-0.023z"></path>
<path d="M24.188 21.813c1.041 0.75 1.759 1.785 2.309 2.93 0.035 0.074 0.035 0.074 0.072 0.149 0.362 0.778 0.461 1.688 0.21 2.519-0.315 0.795-0.895 1.396-1.652 1.777-0.856 0.354-1.71 0.326-2.567-0.014-1.252-0.577-1.8-1.731-2.363-2.912-0.055-0.114-0.11-0.228-0.165-0.342-1.418-2.947-1.418-2.947-1.166-3.7 0.076-0.131 0.156-0.234 0.26-0.344 0.031-0.034 0.063-0.067 0.095-0.102 1.25-1.118 3.701-0.794 4.968 0.040zM19.813 22.625c-0.109 0.44 0.169 0.835 0.363 1.219 0.037 0.075 0.074 0.15 0.111 0.225 0.076 0.153 0.152 0.306 0.228 0.459 0.162 0.326 0.317 0.655 0.473 0.984 0.083 0.172 0.165 0.345 0.248 0.517 0.071 0.149 0.142 0.299 0.212 0.448 0.424 0.89 0.913 1.551 1.864 1.898 0.623 0.176 1.15 0.001 1.703-0.297 0.487-0.399 0.811-0.839 0.883-1.476 0.039-1.152-0.634-2.174-1.336-3.040-0.036-0.046-0.072-0.092-0.109-0.14-0.54-0.663-1.408-1.22-2.272-1.311-0.144-0.007-0.287-0.010-0.431-0.010-0.078 0-0.078 0-0.157 0-0.61 0.012-1.311 0.105-1.781 0.523z"></path>
<path d="M12.598 21.552c0.322 0.271 0.531 0.518 0.632 0.936 0.047 0.738-0.292 1.322-0.614 1.966-0.131 0.262-0.258 0.526-0.385 0.79-0.243 0.505-0.488 1.009-0.735 1.512-0.055 0.113-0.11 0.226-0.165 0.339-0.032 0.066-0.064 0.132-0.097 0.199-0.027 0.056-0.055 0.113-0.083 0.171-0.16 0.29-0.369 0.537-0.588 0.785-0.034 0.040-0.068 0.080-0.103 0.121-0.525 0.575-1.252 0.911-2.023 0.961-0.946 0.039-1.752-0.204-2.466-0.846-0.652-0.67-0.866-1.406-0.865-2.309 0.024-1.438 0.998-2.797 1.957-3.802 0.034-0.039 0.069-0.078 0.104-0.118 1.219-1.333 3.899-1.796 5.431-0.705zM7.429 23.454c-0.727 0.847-1.362 1.938-1.328 3.072 0.054 0.511 0.259 0.947 0.649 1.287 0.584 0.412 1.097 0.567 1.813 0.5 0.704-0.174 1.277-0.667 1.656-1.275 0.091-0.166 0.177-0.333 0.262-0.502 0.032-0.062 0.063-0.124 0.096-0.188 0.331-0.653 0.647-1.313 0.96-1.975 0.085-0.178 0.172-0.355 0.26-0.532 0.026-0.054 0.053-0.108 0.080-0.163 0.049-0.099 0.098-0.198 0.148-0.296 0.136-0.28 0.216-0.501 0.162-0.819-0.399-0.436-1.149-0.536-1.713-0.572-1.279-0.044-2.203 0.573-3.046 1.464z"></path>
<path d="M16.006 16.595c0.119 0.030 0.119 0.030 0.275 0.159 0.116 0.228 0.126 0.368 0.094 0.621-0.066 0.148-0.066 0.148-0.188 0.25-0.214 0.055-0.368 0.083-0.582 0.020-0.189-0.147-0.224-0.282-0.254-0.516 0.050-0.408 0.261-0.561 0.654-0.534z"></path>
</symbol>
<symbol id="icon-paper" viewBox="0 0 32 32">
<path d="M13.603 0.070c0.074 0.008 0.149 0.015 0.226 0.023 0.204 0.021 0.408 0.042 0.611 0.063 0.221 0.023 0.442 0.046 0.663 0.068 0.432 0.044 0.863 0.089 1.295 0.134 0.351 0.036 0.701 0.073 1.052 0.109 0.050 0.005 0.1 0.010 0.152 0.016 0.102 0.011 0.203 0.021 0.305 0.031 0.952 0.098 1.903 0.197 2.855 0.296 0.816 0.085 1.632 0.169 2.448 0.253 0.949 0.098 1.898 0.196 2.847 0.294 0.101 0.010 0.202 0.021 0.304 0.032 0.050 0.005 0.1 0.010 0.151 0.016 0.35 0.036 0.701 0.073 1.051 0.109 0.427 0.044 0.854 0.088 1.28 0.133 0.218 0.023 0.435 0.045 0.653 0.068 0.236 0.024 0.472 0.049 0.708 0.074 0.069 0.007 0.137 0.014 0.208 0.021 0.852 0.091 0.852 0.091 1.086 0.298 0.091 0.197 0.076 0.334 0.057 0.551-0.003 0.043-0.007 0.086-0.011 0.13-0.013 0.154-0.028 0.308-0.043 0.462-0.006 0.059-0.011 0.118-0.017 0.179-0.049 0.514-0.102 1.027-0.155 1.54-0.018 0.173-0.035 0.345-0.053 0.518-0.043 0.418-0.086 0.836-0.129 1.253-0.035 0.34-0.070 0.679-0.105 1.018-0.099 0.964-0.198 1.928-0.298 2.892-0.008 0.078-0.008 0.078-0.016 0.157-0.008 0.078-0.008 0.078-0.016 0.157-0.087 0.843-0.173 1.685-0.26 2.528-0.089 0.867-0.178 1.733-0.267 2.6-0.050 0.486-0.1 0.972-0.15 1.458-0.042 0.413-0.085 0.826-0.128 1.239-0.022 0.211-0.044 0.421-0.065 0.632-0.023 0.228-0.047 0.457-0.071 0.685-0.007 0.067-0.013 0.133-0.020 0.202-0.084 0.79-0.084 0.79-0.294 0.968-0.211 0.051-0.372 0.022-0.582-0.027-0.154-0.098-0.181-0.161-0.227-0.338-0.033-0.317 0.004-0.619 0.038-0.935 0.011-0.108 0.011-0.108 0.022-0.218 0.020-0.199 0.041-0.398 0.062-0.597 0.023-0.215 0.044-0.429 0.066-0.644 0.043-0.42 0.087-0.841 0.131-1.261 0.051-0.489 0.102-0.979 0.152-1.468 0.090-0.873 0.181-1.746 0.272-2.62 0.088-0.848 0.176-1.695 0.264-2.543 0.005-0.052 0.011-0.104 0.016-0.158 0.005-0.052 0.011-0.104 0.016-0.158 0.011-0.105 0.022-0.21 0.033-0.315 0.005-0.052 0.011-0.104 0.016-0.157 0.083-0.807 0.167-1.615 0.251-2.422 0.030-0.293 0.061-0.586 0.091-0.878 0.048-0.464 0.096-0.929 0.145-1.393 0.022-0.212 0.044-0.424 0.066-0.637 0.024-0.23 0.048-0.46 0.072-0.689 0.007-0.067 0.014-0.135 0.021-0.204 0.010-0.092 0.010-0.092 0.020-0.186 0.006-0.053 0.011-0.106 0.017-0.161 0.018-0.135 0.046-0.262 0.082-0.393-0.035-0.003-0.070-0.006-0.106-0.009-0.998-0.084-1.994-0.181-2.991-0.284-0.161-0.017-0.321-0.033-0.482-0.050-0.387-0.040-0.774-0.080-1.161-0.12-0.314-0.033-0.629-0.065-0.943-0.097-0.894-0.092-1.787-0.185-2.681-0.277-0.048-0.005-0.096-0.010-0.145-0.015-0.048-0.005-0.096-0.010-0.145-0.015-0.781-0.081-1.562-0.161-2.343-0.242-0.804-0.083-1.608-0.166-2.412-0.249-0.451-0.047-0.901-0.093-1.352-0.139-0.422-0.043-0.845-0.087-1.267-0.131-0.155-0.016-0.31-0.032-0.466-0.048-0.211-0.022-0.422-0.044-0.633-0.066-0.093-0.009-0.093-0.009-0.188-0.019-0.056-0.006-0.112-0.012-0.17-0.018-0.049-0.005-0.097-0.010-0.148-0.015-0.118-0.018-0.118-0.018-0.243-0.081-0.007 0.077-0.014 0.153-0.022 0.232-0.027 0.286-0.054 0.572-0.081 0.859-0.012 0.123-0.023 0.247-0.035 0.37-0.017 0.178-0.034 0.357-0.051 0.535-0.008 0.082-0.008 0.082-0.016 0.165-0.005 0.053-0.010 0.105-0.015 0.159-0.004 0.045-0.009 0.091-0.013 0.138-0.025 0.243-0.052 0.487-0.079 0.73 0.037-0.005 0.075-0.010 0.113-0.016 0.908-0.127 1.816-0.253 2.725-0.379 0.439-0.061 0.878-0.122 1.318-0.183 0.424-0.059 0.848-0.118 1.272-0.176 0.162-0.022 0.323-0.045 0.485-0.068 0.226-0.032 0.453-0.063 0.68-0.094 0.067-0.010 0.134-0.019 0.202-0.029 0.631-0.085 0.631-0.085 0.956 0.007 0.176 0.165 0.216 0.318 0.248 0.553 0.009 0.060 0.017 0.12 0.026 0.181 0.008 0.064 0.017 0.129 0.025 0.195 0.014 0.1 0.014 0.1 0.028 0.202 0.030 0.213 0.058 0.426 0.087 0.639 0.020 0.143 0.039 0.285 0.059 0.428 0.044 0.316 0.087 0.632 0.129 0.948 0.028 0.202 0.056 0.403 0.085 0.605 0.073 0 0.146 0 0.221 0 0.688 0.001 1.376 0.004 2.064 0.008 0.354 0.002 0.707 0.004 1.061 0.004 0.341 0 0.682 0.002 1.024 0.005 0.13 0.001 0.261 0.001 0.391 0.001 0.182-0 0.364 0.001 0.547 0.003 0.054-0.001 0.108-0.001 0.164-0.002 0.050 0.001 0.1 0.002 0.151 0.003 0.043 0 0.086 0 0.131 0.001 0.21 0.068 0.265 0.159 0.372 0.352 0.037 0.243 0.033 0.485 0.030 0.73 0 0.075 0 0.15 0.001 0.227 0 0.207-0 0.415-0.002 0.622-0.001 0.224-0.001 0.447-0.001 0.671 0 0.388-0.001 0.775-0.002 1.163-0.002 0.56-0.003 1.121-0.003 1.681-0.001 0.909-0.002 1.818-0.005 2.727-0.002 0.883-0.004 1.766-0.005 2.649-0 0.054-0 0.109-0 0.165-0 0.273-0.001 0.546-0.001 0.819-0.003 2.265-0.007 4.531-0.013 6.796 0.075 0.004 0.149 0.008 0.226 0.011 0.098 0.005 0.196 0.011 0.294 0.016 0.049 0.002 0.098 0.005 0.149 0.007 0.047 0.003 0.095 0.005 0.143 0.008 0.044 0.002 0.087 0.005 0.132 0.007 0.119 0.013 0.119 0.013 0.306 0.075 0.009-0.114 0.009-0.114 0.019-0.23 0.024-0.283 0.049-0.565 0.074-0.847 0.011-0.122 0.021-0.244 0.031-0.366 0.015-0.176 0.030-0.352 0.047-0.527 0.004-0.054 0.008-0.109 0.013-0.165 0.031-0.317 0.076-0.51 0.316-0.739 0.172-0.054 0.324-0.037 0.5 0 0.156 0.082 0.156 0.082 0.25 0.25 0.061 0.577-0.038 1.182-0.096 1.757-0.017 0.166-0.032 0.331-0.048 0.497-0.011 0.107-0.021 0.213-0.032 0.32-0.005 0.049-0.009 0.098-0.014 0.148-0.034 0.313-0.095 0.563-0.247 0.841-0.188 0.147-0.344 0.135-0.576 0.112-0.094-0.009-0.094-0.009-0.189-0.017-0.065-0.007-0.13-0.013-0.196-0.020-0.064-0.006-0.129-0.012-0.195-0.018-0.304-0.029-0.606-0.062-0.907-0.119 0.005 0.080 0.010 0.16 0.015 0.242 0.004 0.107 0.008 0.214 0.012 0.32 0.006 0.079 0.006 0.079 0.011 0.159 0.008 0.285-0.011 0.47-0.208 0.683-0.040 0.043-0.080 0.086-0.121 0.131-0.323 0.334-0.65 0.664-0.979 0.992-0.080 0.080-0.161 0.161-0.241 0.241-0.167 0.168-0.335 0.335-0.503 0.502-0.215 0.215-0.43 0.43-0.645 0.645-0.165 0.166-0.331 0.331-0.497 0.497-0.079 0.079-0.159 0.159-0.238 0.238-0.11 0.11-0.221 0.221-0.331 0.331-0.033 0.033-0.066 0.066-0.099 0.1-0.215 0.214-0.322 0.302-0.623 0.303-0.054 0-0.109 0.001-0.165 0.001-0.090 0-0.090 0-0.182 0-0.063 0-0.127 0.001-0.192 0.001-0.214 0.001-0.428 0.001-0.642 0.002-0.153 0.001-0.306 0.001-0.459 0.002-0.46 0.002-0.92 0.002-1.38 0.003-0.13 0-0.26 0-0.39 0.001-0.806 0.002-1.612 0.003-2.418 0.004-0.187 0-0.373 0-0.56 0.001-0.046 0-0.093 0-0.141 0-0.752 0.001-1.504 0.003-2.256 0.005-0.772 0.003-1.544 0.004-2.315 0.004-0.434 0-0.867 0.001-1.301 0.003-0.408 0.002-0.815 0.002-1.223 0.002-0.15 0-0.3 0.001-0.45 0.002-0.204 0.001-0.408 0.001-0.612-0-0.060 0.001-0.119 0.002-0.181 0.003-0.4-0.005-0.4-0.005-0.601-0.188-0.102-0.191-0.117-0.308-0.112-0.523 0.001-0.067 0.002-0.133 0.002-0.202 0.002-0.069 0.004-0.138 0.006-0.209 0.001-0.070 0.002-0.14 0.003-0.213 0.003-0.173 0.007-0.345 0.012-0.518-0.062 0.009-0.125 0.019-0.189 0.029-0.235 0.035-0.47 0.070-0.705 0.105-0.101 0.015-0.202 0.030-0.303 0.045-1.371 0.208-1.371 0.208-1.741 0.134-0.211-0.174-0.283-0.296-0.32-0.566-0.009-0.063-0.018-0.126-0.028-0.191-0.009-0.068-0.018-0.137-0.027-0.207-0.010-0.072-0.020-0.144-0.031-0.219-0.032-0.231-0.063-0.461-0.094-0.692-0.020-0.145-0.040-0.289-0.061-0.434-0.059-0.421-0.116-0.843-0.172-1.265-0.029-0.218-0.059-0.437-0.088-0.655-0.051-0.377-0.102-0.754-0.153-1.131-0.074-0.549-0.148-1.099-0.222-1.648-0.121-0.897-0.242-1.794-0.363-2.691-0.116-0.861-0.232-1.722-0.348-2.583-0.007-0.053-0.014-0.105-0.022-0.16-0.043-0.318-0.086-0.636-0.129-0.954-0.064-0.471-0.127-0.942-0.191-1.412-0.010-0.077-0.010-0.077-0.021-0.155-0.087-0.644-0.174-1.288-0.261-1.932-0.025-0.188-0.051-0.376-0.076-0.564-0.055-0.408-0.11-0.817-0.165-1.225-0.029-0.219-0.059-0.437-0.088-0.656-0.006-0.043-0.012-0.085-0.017-0.129-0.083-0.616-0.168-1.232-0.254-1.848-0.036-0.259-0.072-0.518-0.108-0.776-0.028-0.203-0.057-0.406-0.086-0.609-0.031-0.221-0.062-0.442-0.093-0.663-0.009-0.065-0.019-0.129-0.028-0.196-0.105-0.776-0.105-0.776 0.111-1.085 0.188-0.132 0.331-0.155 0.559-0.185 0.041-0.006 0.083-0.012 0.125-0.018 0.138-0.019 0.276-0.037 0.415-0.055 0.099-0.013 0.198-0.027 0.298-0.041 0.269-0.037 0.539-0.072 0.808-0.108 0.282-0.037 0.564-0.075 0.846-0.114 0.473-0.064 0.947-0.127 1.421-0.19 0.608-0.080 1.215-0.162 1.823-0.244 0.522-0.070 1.045-0.141 1.568-0.21 0.112-0.015 0.224-0.030 0.336-0.045 0.32-0.043 0.639-0.085 0.959-0.128 0.097-0.013 0.194-0.026 0.29-0.039 0.132-0.018 0.265-0.035 0.397-0.053 0.074-0.010 0.148-0.020 0.224-0.030 0.195-0.020 0.383-0.025 0.579-0.021 0.007-0.073 0.014-0.146 0.021-0.221 0.026-0.277 0.053-0.554 0.079-0.832 0.011-0.119 0.023-0.238 0.034-0.356 0.005-0.057 0.011-0.114 0.016-0.173 0.005-0.057 0.011-0.114 0.016-0.173 0.011-0.116 0.022-0.232 0.033-0.348 0.028-0.291 0.055-0.581 0.080-0.872 0.005-0.056 0.010-0.112 0.015-0.17 0.009-0.106 0.018-0.211 0.026-0.317 0.029-0.318 0.094-0.565 0.242-0.85 0.471-0.235 1.278-0.047 1.79 0.008zM19.133 4.248c-0.048 0.007-0.096 0.013-0.146 0.020-0.055 0.007-0.111 0.014-0.168 0.022-0.061 0.009-0.123 0.017-0.186 0.026-0.065 0.009-0.13 0.017-0.196 0.026-0.219 0.029-0.437 0.060-0.656 0.090-0.156 0.021-0.313 0.042-0.469 0.063-0.382 0.052-0.763 0.104-1.145 0.156-0.446 0.061-0.891 0.122-1.337 0.182-0.797 0.108-1.594 0.217-2.39 0.327-0.77 0.106-1.54 0.211-2.31 0.316-0.047 0.006-0.094 0.013-0.143 0.019-0.19 0.026-0.38 0.052-0.57 0.078-0.826 0.112-1.652 0.225-2.478 0.338-0.133 0.018-0.265 0.036-0.398 0.054-0.507 0.069-1.013 0.138-1.52 0.208-0.152 0.021-0.305 0.042-0.458 0.063-1.023 0.14-2.044 0.291-3.065 0.451 0.325 2.473 0.657 4.945 0.991 7.417 0.072 0.533 0.144 1.066 0.216 1.6 0.128 0.95 0.257 1.9 0.385 2.85 0.124 0.92 0.249 1.84 0.373 2.76 0.008 0.057 0.015 0.114 0.023 0.173 0.039 0.287 0.078 0.574 0.116 0.861 0.319 2.363 0.638 4.725 0.958 7.088 0.78-0.032 1.542-0.131 2.313-0.25 0-0.081 0-0.162 0-0.245 0.002-1.92 0.006-3.841 0.011-5.761 0.001-0.236 0.001-0.473 0.002-0.709 0-0.047 0-0.094 0-0.143 0.002-0.762 0.003-1.524 0.004-2.286 0.001-0.782 0.003-1.563 0.005-2.345 0.002-0.483 0.002-0.965 0.002-1.448 0-0.37 0.001-0.739 0.003-1.109 0.001-0.152 0.001-0.304 0-0.456-0-0.207 0.001-0.414 0.002-0.62-0-0.061-0.001-0.121-0.001-0.184 0.005-0.404 0.005-0.404 0.149-0.608 0.181-0.117 0.298-0.109 0.51-0.087 0.082 0.021 0.165 0.041 0.25 0.063 0.021 5.878 0.041 11.756 0.063 17.813 4.641 0 9.281 0 14.062 0 0.021-1.176 0.041-2.351 0.063-3.563 0.125-0.25 0.125-0.25 0.25-0.313 1.794-0.031 1.794-0.031 3.625-0.063 0-6.291 0-12.581 0-19.063-5.94 0-11.88 0-18 0-0.021 1.093-0.041 2.186-0.063 3.313-0.207 0.138-0.272 0.139-0.512 0.133-0.056-0.001-0.113-0.002-0.171-0.003-0.043-0.001-0.086-0.003-0.13-0.004-0.064-0.213-0.071-0.408-0.073-0.63-0.001-0.077-0.001-0.153-0.002-0.233-0-0.084-0.001-0.167-0.001-0.251-0-0.086-0.001-0.172-0.001-0.258-0.001-0.18-0.001-0.36-0.001-0.54-0-0.23-0.002-0.461-0.004-0.691-0.001-0.177-0.002-0.355-0.002-0.532-0-0.085-0.001-0.17-0.002-0.255-0.001-0.119-0.001-0.238-0.001-0.356-0-0.101-0-0.101-0.001-0.205 0.027-0.21 0.056-0.28 0.21-0.425 0.175-0.025 0.325-0.034 0.499-0.032 0.051-0 0.103-0.001 0.156-0.001 0.173-0.001 0.346-0.001 0.519-0 0.124-0.001 0.248-0.001 0.371-0.002 0.337-0.002 0.673-0.002 1.010-0.002 0.352-0 0.703-0.002 1.055-0.003 0.666-0.003 1.332-0.004 1.998-0.005 0.758-0.001 1.516-0.003 2.274-0.006 1.56-0.005 3.12-0.009 4.679-0.011-0.010-0.14-0.020-0.281-0.029-0.421-0.008-0.117-0.008-0.117-0.017-0.237-0.030-0.392-0.084-0.78-0.137-1.17-0.011-0.081-0.021-0.163-0.032-0.247-0.011-0.077-0.021-0.155-0.032-0.235-0.009-0.070-0.019-0.139-0.029-0.211-0.040-0.185-0.073-0.29-0.278-0.293zM22.938 28.125c0 0.722 0 1.444 0 2.188 0.333-0.282 0.333-0.282 0.648-0.577 0.035-0.035 0.070-0.070 0.106-0.105s0.072-0.072 0.109-0.11c0.038-0.038 0.076-0.076 0.116-0.116 0.080-0.080 0.16-0.16 0.239-0.24 0.123-0.123 0.246-0.246 0.369-0.368 0.078-0.078 0.156-0.156 0.233-0.234 0.037-0.037 0.074-0.074 0.112-0.111 0.175-0.141 0.175-0.141 0.256-0.327-0.722 0-1.444 0-2.188 0z"></path>
</symbol>
<symbol id="icon-stone" viewBox="0 0 32 32" fill="currentColor">
<path d="M12.001 2.356c0.098 0.007 0.098 0.007 0.197 0.014 0.213 0.015 0.425 0.031 0.638 0.047 0.149 0.011 0.298 0.022 0.447 0.033 0.311 0.023 0.623 0.046 0.934 0.069 0.398 0.030 0.796 0.059 1.194 0.087 0.307 0.022 0.615 0.045 0.922 0.068 0.147 0.011 0.294 0.022 0.44 0.032 0.205 0.015 0.411 0.030 0.616 0.046 0.060 0.004 0.12 0.008 0.182 0.013 0.997 0.077 0.997 0.077 1.346 0.383 0.052 0.044 0.104 0.089 0.157 0.135 0.058 0.051 0.115 0.102 0.175 0.155 0.070 0.060 0.14 0.12 0.21 0.18 0.15 0.128 0.3 0.257 0.45 0.386 0.239 0.206 0.484 0.405 0.729 0.604 0.333 0.272 0.66 0.551 0.987 0.83 0.051 0.044 0.103 0.087 0.156 0.132 0.044 0.038 0.088 0.075 0.133 0.114 0.037 0.032 0.074 0.063 0.112 0.095 0.454 0.44 0.433 1.088 0.482 1.686 0.008 0.090 0.008 0.090 0.016 0.182 0.026 0.304 0.045 0.609 0.053 0.914 0.002 0.054 0.003 0.109 0.005 0.165-0.025 0.185-0.078 0.267-0.208 0.399-0.214 0.055-0.368 0.083-0.582 0.020-0.188-0.146-0.226-0.3-0.26-0.532-0.006-0.077-0.013-0.155-0.019-0.235-0.004-0.042-0.007-0.084-0.011-0.127-0.012-0.133-0.023-0.266-0.034-0.399-0.014-0.175-0.029-0.35-0.045-0.525-0.006-0.078-0.013-0.155-0.019-0.235-0.061-0.45-0.198-0.667-0.549-0.947-0.039-0.032-0.078-0.064-0.118-0.098-0.081-0.067-0.162-0.133-0.243-0.199-0.147-0.12-0.292-0.244-0.436-0.367-0.527-0.449-1.054-0.894-1.62-1.293-0.040 0.067-0.080 0.133-0.122 0.202-0.312 0.516-0.63 1.027-0.96 1.532-0.033 0.051-0.067 0.102-0.101 0.155-0.145 0.223-0.291 0.446-0.436 0.668-0.121 0.185-0.241 0.371-0.361 0.556-0.038 0.057-0.075 0.114-0.114 0.173-0.035 0.054-0.070 0.108-0.106 0.164-0.031 0.047-0.062 0.095-0.093 0.144-0.171 0.328-0.228 0.686-0.281 1.049-0.007 0.044-0.013 0.088-0.020 0.133-0.021 0.145-0.043 0.291-0.064 0.436-0.015 0.105-0.031 0.21-0.046 0.314-0.042 0.284-0.083 0.567-0.124 0.851-0.043 0.297-0.087 0.594-0.13 0.892-0.073 0.499-0.146 0.998-0.218 1.497-0.084 0.577-0.168 1.153-0.253 1.73-0.081 0.555-0.162 1.11-0.243 1.665-0.034 0.236-0.069 0.472-0.104 0.708-0.041 0.278-0.081 0.556-0.122 0.834-0.015 0.102-0.030 0.204-0.045 0.306-0.021 0.139-0.041 0.279-0.061 0.418-0.017 0.117-0.017 0.117-0.034 0.236-0.022 0.198-0.029 0.388-0.024 0.587 0.048-0.052 0.097-0.104 0.146-0.157 0.066-0.069 0.131-0.137 0.197-0.206 0.032-0.034 0.063-0.068 0.096-0.104 0.032-0.033 0.064-0.066 0.098-0.101 0.029-0.030 0.058-0.061 0.087-0.092 0.347-0.249 0.788-0.323 1.199-0.405 0.053-0.011 0.106-0.022 0.16-0.033 0.111-0.023 0.221-0.045 0.332-0.067 0.169-0.034 0.339-0.069 0.508-0.104 0.108-0.022 0.216-0.044 0.324-0.066 0.050-0.010 0.101-0.021 0.153-0.031 0.218-0.044 0.414-0.071 0.637-0.071-0.001-0.072-0.001-0.143-0.002-0.217-0.005-0.669 0.004-1.338 0.022-2.006 0.002-0.087 0.005-0.175 0.006-0.262 0.020-0.889 0.208-1.644 0.474-2.487 0.051-0.161 0.1-0.322 0.149-0.483 0.033-0.104 0.065-0.208 0.098-0.311 0.014-0.047 0.029-0.095 0.044-0.144 0.133-0.415 0.318-0.867 0.717-1.086 0.041-0.024 0.083-0.048 0.125-0.072 0.535-0.261 1.184-0.103 1.742 0.006 0.023-0.118 0.023-0.118 0.047-0.238 0.044-0.171 0.069-0.252 0.188-0.387 0.192-0.085 0.308-0.096 0.516-0.063 0.244 0.172 0.327 0.321 0.384 0.606 0.010 0.050 0.021 0.101 0.031 0.153 0.011 0.058 0.011 0.058 0.022 0.116 0.036 0.006 0.073 0.011 0.111 0.017 0.381 0.059 0.763 0.119 1.144 0.18 0.142 0.023 0.284 0.045 0.426 0.066 0.205 0.031 0.41 0.064 0.614 0.097 0.095 0.014 0.095 0.014 0.191 0.028 0.472 0.079 0.821 0.228 1.159 0.572 0.126 0.197 0.211 0.399 0.289 0.618 0.016 0.044 0.032 0.089 0.048 0.135 0.033 0.093 0.065 0.186 0.097 0.278 0.042 0.121 0.089 0.24 0.136 0.359 0.415 1.163 0.363 2.553 0.348 3.775 0.045 0.017 0.091 0.034 0.137 0.051 0.171 0.072 0.32 0.154 0.478 0.251 0.058 0.035 0.116 0.070 0.175 0.107 0.061 0.038 0.123 0.076 0.186 0.114s0.127 0.078 0.192 0.118c0.194 0.119 0.388 0.239 0.581 0.359 0.058 0.036 0.116 0.072 0.176 0.108 0.16 0.099 0.32 0.198 0.48 0.298 0.047 0.029 0.095 0.058 0.143 0.088 0.216 0.136 0.427 0.277 0.628 0.433 0.034 0.026 0.067 0.052 0.102 0.078 0.245 0.305 0.32 0.739 0.396 1.115 0.015 0.070 0.015 0.070 0.030 0.142 0.032 0.153 0.063 0.307 0.094 0.46 0.022 0.108 0.044 0.216 0.066 0.324 0.046 0.226 0.092 0.452 0.138 0.677 0.058 0.287 0.118 0.574 0.177 0.861 0.046 0.223 0.091 0.446 0.137 0.669 0.022 0.106 0.043 0.211 0.065 0.317 0.347 1.665 0.347 1.665-0.033 2.417-0.022 0.046-0.044 0.093-0.066 0.141-0.069 0.145-0.139 0.289-0.21 0.434-0.047 0.098-0.093 0.196-0.14 0.295-0.122 0.257-0.246 0.513-0.372 0.768-0.034 0.070-0.067 0.139-0.102 0.211-0.083 0.161-0.155 0.252-0.292 0.367-0.035 0.030-0.069 0.060-0.105 0.091-0.359 0.232-0.791 0.254-1.205 0.306-0.106 0.014-0.106 0.014-0.213 0.028-0.232 0.030-0.465 0.060-0.697 0.089-0.162 0.021-0.324 0.042-0.486 0.063-0.339 0.044-0.679 0.087-1.018 0.13-0.391 0.050-0.782 0.1-1.173 0.151-0.377 0.049-0.755 0.097-1.132 0.145-0.16 0.020-0.32 0.041-0.48 0.062-0.224 0.029-0.448 0.057-0.673 0.086-0.066 0.009-0.131 0.017-0.199 0.026-0.73 0.091-1.368 0.038-2.092-0.094-0.092-0.016-0.184-0.033-0.277-0.049-0.249-0.044-0.498-0.089-0.746-0.134-0.261-0.047-0.523-0.094-0.784-0.14-0.439-0.078-0.877-0.157-1.315-0.236-0.506-0.091-1.012-0.182-1.518-0.272-0.488-0.087-0.976-0.174-1.464-0.262-0.207-0.037-0.414-0.074-0.622-0.111-0.244-0.043-0.488-0.087-0.732-0.132-0.089-0.016-0.179-0.032-0.268-0.048-1.233-0.218-1.233-0.218-1.594-0.59-0.104-0.169-0.185-0.346-0.266-0.527-0.021-0.044-0.041-0.089-0.063-0.135-0.183-0.398-0.353-0.802-0.526-1.205-0.026-0.061-0.052-0.122-0.079-0.184-0.064-0.149-0.128-0.299-0.192-0.448-0.035-0-0.070-0-0.106-0-0.852-0.004-1.705-0.008-2.557-0.014-0.412-0.003-0.824-0.005-1.237-0.007-0.398-0.002-0.796-0.004-1.194-0.007-0.152-0.001-0.303-0.002-0.455-0.002-0.213-0.001-0.425-0.002-0.638-0.004-0.063 0-0.125 0-0.189 0-0.419-0.006-0.781-0.054-1.128-0.31-0.309-0.358-0.495-0.764-0.681-1.195-0.1-0.23-0.202-0.459-0.304-0.689-0.032-0.072-0.032-0.072-0.064-0.145-0.213-0.481-0.438-0.956-0.664-1.43-0.134-0.281-0.266-0.562-0.398-0.844-0.13-0.276-0.261-0.55-0.393-0.825-0.084-0.174-0.166-0.349-0.248-0.525-0.038-0.081-0.077-0.162-0.116-0.242-0.285-0.582-0.474-1.086-0.263-1.725 0.171-0.457 0.376-0.9 0.579-1.344 0.065-0.145 0.13-0.291 0.194-0.436 0.101-0.227 0.202-0.454 0.303-0.681 0.377-0.842 0.737-1.691 1.096-2.54 0.060-0.142 0.121-0.284 0.181-0.426 0.029-0.067 0.057-0.135 0.087-0.204 0.055-0.129 0.11-0.259 0.165-0.388 0.113-0.266 0.226-0.531 0.332-0.8 0.017-0.041 0.033-0.082 0.050-0.125 0.042-0.104 0.082-0.208 0.122-0.312 0.109-0.189 0.204-0.255 0.402-0.343 0.231 0.004 0.376 0.016 0.563 0.156 0.142 0.355 0.007 0.729-0.133 1.065-0.062 0.139-0.124 0.277-0.187 0.415-0.074 0.166-0.148 0.332-0.221 0.499-0.021 0.046-0.041 0.092-0.062 0.14-0.35 0.791-0.684 1.588-1.022 2.385-0.607 1.432-0.607 1.432-0.9 2.084-0.039 0.088-0.078 0.176-0.118 0.264-0.069 0.154-0.138 0.306-0.209 0.459-0.029 0.066-0.059 0.132-0.089 0.199-0.025 0.055-0.050 0.11-0.076 0.166-0.106 0.397 0.060 0.739 0.228 1.092 0.022 0.047 0.043 0.093 0.066 0.141 0.071 0.153 0.144 0.306 0.216 0.459 0.050 0.108 0.101 0.215 0.151 0.323 0.106 0.227 0.212 0.453 0.318 0.679 0.163 0.348 0.324 0.696 0.485 1.045 0.053 0.114 0.105 0.228 0.158 0.343 0.076 0.164 0.151 0.328 0.227 0.493 0.071 0.153 0.141 0.306 0.212 0.459 0.020 0.043 0.040 0.086 0.060 0.131 0.226 0.486 0.469 0.961 0.709 1.442 2.124 0.021 4.249 0.041 6.438 0.063 0-0.124 0-0.247 0-0.375 0.164-0.42 0.525-0.731 0.844-1.035 0.104-0.101 0.208-0.202 0.311-0.304 0.162-0.157 0.325-0.315 0.489-0.471 0.159-0.152 0.316-0.306 0.473-0.46 0.049-0.046 0.098-0.092 0.148-0.14 0.045-0.045 0.091-0.089 0.137-0.135 0.040-0.038 0.080-0.077 0.121-0.116 0.229-0.346 0.249-0.83 0.307-1.235 0.007-0.049 0.014-0.098 0.022-0.149 0.024-0.163 0.048-0.326 0.071-0.49 0.017-0.118 0.034-0.235 0.052-0.353 0.047-0.318 0.093-0.637 0.139-0.955 0.049-0.333 0.097-0.666 0.146-0.999 0.092-0.63 0.184-1.26 0.276-1.89 0.105-0.718 0.21-1.435 0.315-2.153 0.216-1.476 0.431-2.951 0.647-4.427-0.203-0.135-0.362-0.181-0.598-0.244-0.042-0.011-0.083-0.022-0.126-0.034-0.139-0.037-0.279-0.074-0.418-0.111-0.099-0.027-0.198-0.053-0.297-0.080-0.212-0.057-0.424-0.113-0.635-0.17-0.331-0.088-0.663-0.177-0.994-0.266-0.336-0.090-0.672-0.18-1.008-0.27-0.962-0.257-1.924-0.516-2.886-0.777-0.237-0.064-0.475-0.128-0.712-0.192-0.143-0.039-0.285-0.077-0.428-0.116-0.065-0.017-0.129-0.035-0.196-0.053-0.058-0.016-0.117-0.032-0.177-0.048-0.051-0.014-0.101-0.027-0.153-0.041-0.122-0.037-0.122-0.037-0.247-0.099-0.006 0.041-0.012 0.081-0.018 0.123-0.060 0.253-0.159 0.481-0.261 0.719-0.021 0.050-0.043 0.101-0.065 0.153-0.045 0.106-0.091 0.213-0.137 0.319-0.070 0.162-0.139 0.325-0.207 0.488-0.044 0.103-0.089 0.207-0.133 0.31-0.020 0.049-0.041 0.097-0.062 0.147-0.185 0.424-0.185 0.424-0.429 0.553-0.175 0.019-0.332-0.010-0.5-0.063-0.155-0.131-0.182-0.208-0.207-0.407 0.028-0.309 0.146-0.56 0.271-0.843 0.026-0.060 0.052-0.119 0.078-0.181 0.055-0.126 0.109-0.251 0.165-0.377 0.084-0.191 0.167-0.383 0.25-0.575 0.053-0.122 0.107-0.245 0.16-0.367 0.037-0.086 0.037-0.086 0.075-0.173 0.356-0.806 0.356-0.806 0.748-1.004 0.057-0.029 0.113-0.058 0.172-0.088 0.061-0.030 0.122-0.060 0.185-0.091 0.064-0.032 0.128-0.065 0.194-0.098 0.546-0.275 1.096-0.539 1.649-0.8 0.289-0.136 0.577-0.275 0.864-0.415 0.082-0.040 0.164-0.080 0.246-0.12 0.12-0.058 0.241-0.117 0.361-0.176 0.242-0.119 0.486-0.235 0.73-0.349 0.046-0.022 0.092-0.044 0.14-0.067 0.532-0.231 1.172-0.119 1.737-0.077zM10.562 3.407c-0.042 0.021-0.085 0.041-0.129 0.063-0.066 0.034-0.066 0.034-0.134 0.069-0.047 0.023-0.095 0.047-0.144 0.071-0.153 0.076-0.305 0.153-0.456 0.23-0.104 0.052-0.209 0.104-0.313 0.156-0.154 0.077-0.309 0.154-0.463 0.231-0.429 0.215-0.863 0.421-1.3 0.619-0.227 0.093-0.227 0.093-0.373 0.279 0.067 0.018 0.135 0.037 0.204 0.056 0.646 0.176 1.292 0.351 1.938 0.526 0.396 0.108 0.793 0.215 1.189 0.323 0.193 0.052 0.385 0.105 0.578 0.157 0.253 0.069 0.507 0.138 0.76 0.206 0.573 0.156 1.147 0.312 1.719 0.47 0.143 0.040 0.287 0.079 0.43 0.119 0.13 0.036 0.261 0.072 0.391 0.109 0.077 0.021 0.153 0.042 0.232 0.064 0.099 0.028 0.099 0.028 0.2 0.056 0.182 0.048 0.182 0.048 0.42 0.039 0.087-0.087 0.087-0.087 0.151-0.209 0.027-0.045 0.053-0.091 0.081-0.137 0.042-0.074 0.042-0.074 0.085-0.15 0.061-0.104 0.123-0.208 0.184-0.313 0.031-0.053 0.062-0.106 0.094-0.161 0.138-0.232 0.285-0.457 0.433-0.683 0.372-0.57 0.735-1.146 1.098-1.723-0.171-0.095-0.305-0.142-0.5-0.157-0.074-0.006-0.074-0.006-0.149-0.012-0.053-0.004-0.107-0.007-0.161-0.011-0.085-0.006-0.085-0.006-0.171-0.013-0.187-0.014-0.374-0.027-0.561-0.041-0.13-0.010-0.26-0.019-0.39-0.029-0.273-0.020-0.546-0.040-0.819-0.060-0.349-0.025-0.698-0.051-1.047-0.076-0.269-0.020-0.538-0.040-0.807-0.059-0.129-0.009-0.257-0.019-0.386-0.028-0.18-0.013-0.361-0.026-0.541-0.039-0.079-0.006-0.079-0.006-0.16-0.012-0.606-0.068-0.606-0.068-1.182 0.068zM20.301 11.904c-0.155 0.216-0.224 0.434-0.302 0.687-0.016 0.051-0.033 0.103-0.049 0.156-0.034 0.108-0.068 0.217-0.101 0.325-0.051 0.165-0.104 0.33-0.156 0.495-0.033 0.106-0.066 0.211-0.099 0.317-0.023 0.073-0.023 0.073-0.047 0.148-0.087 0.288-0.136 0.539-0.108 0.843 0.125 0.169 0.125 0.169 0.313 0.313 0.036 0.031 0.073 0.062 0.11 0.093 0.254 0.212 0.513 0.417 0.772 0.624 0.099 0.081 0.196 0.164 0.293 0.248 0.047 0.040 0.093 0.080 0.141 0.121 0.038 0.034 0.076 0.068 0.115 0.103 0.352 0.165 0.846-0.086 1.187-0.207 0.059-0.021 0.118-0.041 0.179-0.062 0.191-0.067 0.382-0.134 0.573-0.201 0.131-0.046 0.261-0.092 0.392-0.138 0.315-0.111 0.631-0.223 0.946-0.335 0.148-0.053 0.297-0.105 0.445-0.157 0.214-0.075 0.427-0.152 0.64-0.23 0.059-0.021 0.118-0.042 0.178-0.063 0.078-0.029 0.078-0.029 0.159-0.059 0.044-0.016 0.087-0.032 0.132-0.048 0.148-0.084 0.217-0.167 0.301-0.314 0.003-0.127 0.003-0.127-0.038-0.256-0.020-0.074-0.020-0.074-0.040-0.149-0.016-0.052-0.031-0.104-0.047-0.157s-0.031-0.105-0.047-0.16c-0.050-0.164-0.105-0.326-0.16-0.489-0.018-0.056-0.035-0.111-0.054-0.168-0.018-0.053-0.036-0.107-0.055-0.161-0.016-0.048-0.032-0.096-0.048-0.145-0.101-0.175-0.206-0.223-0.386-0.315-0.215-0.055-0.215-0.055-0.454-0.090-0.045-0.007-0.089-0.015-0.135-0.022-0.147-0.024-0.293-0.047-0.44-0.070-0.102-0.017-0.205-0.033-0.307-0.050-0.214-0.035-0.429-0.069-0.643-0.103-0.274-0.043-0.548-0.087-0.822-0.132-0.211-0.034-0.423-0.068-0.634-0.102-0.101-0.016-0.202-0.032-0.303-0.049-0.141-0.023-0.283-0.045-0.424-0.067-0.121-0.019-0.121-0.019-0.244-0.039-0.383-0.061-0.383-0.061-0.73 0.065zM25.657 15.996c-0.053 0.019-0.107 0.038-0.162 0.058-0.174 0.063-0.348 0.126-0.522 0.189-0.179 0.065-0.358 0.129-0.537 0.194-0.12 0.043-0.239 0.086-0.359 0.13-0.358 0.129-0.716 0.256-1.075 0.379-0.082 0.028-0.164 0.057-0.246 0.085-0.149 0.052-0.299 0.103-0.448 0.154-0.065 0.023-0.131 0.046-0.198 0.069-0.056 0.019-0.113 0.038-0.171 0.058-0.148 0.056-0.148 0.056-0.189 0.251-0.031 0.278-0.047 0.557-0.066 0.836-0.006 0.076-0.011 0.152-0.017 0.23-0.005 0.076-0.011 0.151-0.016 0.229-0.005 0.068-0.010 0.136-0.015 0.206-0.019 0.354-0.012 0.708-0.010 1.062 0.573-0.12 1.146-0.24 1.72-0.36 0.266-0.056 0.532-0.112 0.798-0.167 0.257-0.054 0.514-0.108 0.771-0.162 0.098-0.021 0.196-0.041 0.294-0.061 0.137-0.029 0.275-0.058 0.412-0.087 0.078-0.016 0.156-0.033 0.237-0.050 0.256-0.063 0.455-0.113 0.644-0.301 0.013-0.163 0.018-0.318 0.016-0.48-0-0.050-0-0.1-0.001-0.152-0.011-0.832-0.080-1.663-0.14-2.492-0.259 0-0.478 0.095-0.718 0.183zM19.375 16.188c-0.072 0.52-0.091 1.038-0.108 1.562-0.004 0.113-0.008 0.225-0.013 0.338-0.007 0.164-0.012 0.328-0.017 0.491-0.002 0.050-0.005 0.1-0.007 0.152-0.006 0.243 0.002 0.363 0.131 0.576 0.125 0.117 0.225 0.197 0.378 0.271 0.044 0.022 0.087 0.043 0.133 0.065 0.068 0.032 0.068 0.032 0.136 0.064 0.046 0.022 0.091 0.045 0.138 0.068 0.229 0.12 0.229 0.12 0.479 0.162 0.049-0.37 0.091-0.739 0.128-1.11 0.013-0.126 0.028-0.252 0.045-0.377 0.116-0.683 0.116-0.683-0.066-1.324-0.201-0.213-0.433-0.363-0.688-0.503-0.147-0.083-0.276-0.186-0.407-0.291-0.167-0.151-0.167-0.151-0.262-0.145zM27.5 18.438c-0.002 0.044-0.003 0.088-0.005 0.133-0.030 0.509-0.12 0.854-0.472 1.23-0.509 0.378-1.291 0.43-1.9 0.561-0.103 0.022-0.205 0.044-0.308 0.066-0.214 0.046-0.429 0.092-0.643 0.138-0.273 0.058-0.546 0.118-0.82 0.177-0.212 0.046-0.424 0.091-0.635 0.137-0.101 0.022-0.201 0.043-0.302 0.065-1.36 0.297-1.36 0.297-1.848 0.075-0.077-0.034-0.077-0.034-0.156-0.069-0.053-0.025-0.106-0.050-0.161-0.076-0.085-0.038-0.085-0.038-0.171-0.077-0.177-0.081-0.353-0.166-0.528-0.251-0.059-0.027-0.118-0.055-0.179-0.083-0.396-0.194-0.699-0.397-0.934-0.776-0.059-0.177-0.059-0.177-0.105-0.361-0.016-0.061-0.031-0.123-0.048-0.186-0.011-0.047-0.023-0.093-0.034-0.141-2.158 0.124-3.271 0.986-4.703 2.541-0.195 0.209-0.395 0.414-0.595 0.618-0.24 0.245-0.477 0.492-0.714 0.74-0.045 0.047-0.090 0.093-0.136 0.141-0.125 0.132-0.249 0.265-0.372 0.398-0.056 0.058-0.056 0.058-0.113 0.117-0.206 0.224-0.206 0.224-0.239 0.519 0.073 0.217 0.157 0.427 0.25 0.635 0.061 0.138 0.122 0.276 0.184 0.414 1.521 0.009 3.041-0.029 4.561-0.065 0.496-0.012 0.993-0.023 1.489-0.031 0.437-0.007 0.874-0.016 1.31-0.028 0.23-0.006 0.46-0.011 0.69-0.014 1.016-0.012 1.798-0.031 2.575-0.737 0.095-0.065 0.191-0.129 0.289-0.189 0.040-0.026 0.080-0.052 0.121-0.078 0.173-0.111 0.346-0.222 0.519-0.333 0.136-0.088 0.271-0.179 0.406-0.269 0.088-0.058 0.175-0.115 0.263-0.173 0.039-0.027 0.079-0.054 0.119-0.082 0.293-0.19 0.496-0.226 0.845-0.187 0.129 0.133 0.129 0.133 0.188 0.313-0.012 0.223-0.025 0.337-0.184 0.499-0.081 0.055-0.081 0.055-0.164 0.11-0.063 0.043-0.125 0.085-0.19 0.129-0.308 0.199-0.619 0.393-0.931 0.586-0.326 0.202-0.648 0.411-0.969 0.621-0.056 0.036-0.111 0.073-0.169 0.11-0.131 0.086-0.262 0.171-0.394 0.257 0.082 0.608 0.181 1.212 0.291 1.815 0.026 0.14 0.051 0.28 0.076 0.421 0.016 0.090 0.033 0.179 0.049 0.269 0.022 0.12 0.022 0.12 0.044 0.243 0.030 0.184 0.030 0.184 0.102 0.315 1.115-0.069 2.224-0.223 3.332-0.36 0.372-0.046 0.744-0.091 1.117-0.134 0.362-0.042 0.724-0.086 1.086-0.132 0.137-0.017 0.275-0.033 0.413-0.048 0.192-0.022 0.384-0.046 0.575-0.071 0.057-0.006 0.113-0.011 0.172-0.017 0.225-0.032 0.376-0.053 0.533-0.225 0.081-0.127 0.147-0.252 0.21-0.388 0.036-0.071 0.073-0.142 0.11-0.215 0.088-0.189 0.175-0.379 0.261-0.569 0.055-0.122 0.112-0.243 0.168-0.364 0.036-0.079 0.071-0.157 0.107-0.236 0.032-0.070 0.064-0.14 0.097-0.213 0.127-0.394 0.072-0.767-0.009-1.166-0.008-0.042-0.017-0.084-0.025-0.127-0.027-0.137-0.055-0.273-0.083-0.41-0.019-0.096-0.039-0.191-0.058-0.287-0.040-0.2-0.081-0.399-0.122-0.599-0.052-0.256-0.104-0.512-0.155-0.768-0.040-0.197-0.080-0.394-0.12-0.591-0.019-0.094-0.038-0.189-0.057-0.283-0.026-0.132-0.054-0.263-0.081-0.394-0.023-0.112-0.023-0.112-0.046-0.227-0.035-0.182-0.035-0.182-0.173-0.3-0.064 0.042-0.129 0.083-0.195 0.126-0.569 0.368-0.569 0.368-1.137 0.736-0.043 0.028-0.087 0.056-0.131 0.085-0.087 0.056-0.174 0.113-0.262 0.169-0.23 0.149-0.46 0.299-0.688 0.451-0.047 0.031-0.095 0.063-0.143 0.095-0.090 0.060-0.18 0.12-0.269 0.18-0.262 0.173-0.49 0.284-0.8 0.345-0.18-0.059-0.18-0.059-0.313-0.188-0.070-0.211-0.070-0.211-0.063-0.438 0.2-0.231 0.423-0.399 0.677-0.567 0.052-0.034 0.052-0.034 0.104-0.069 0.11-0.073 0.221-0.146 0.332-0.219 0.076-0.051 0.153-0.101 0.229-0.152 0.445-0.294 0.893-0.585 1.349-0.863 0.258-0.157 0.502-0.328 0.746-0.505-0.156-0.172-0.329-0.284-0.525-0.407-0.066-0.041-0.132-0.082-0.2-0.125-0.103-0.064-0.103-0.064-0.209-0.129-0.069-0.043-0.137-0.086-0.208-0.13-0.39-0.245-0.39-0.245-0.796-0.46zM18.010 25.914c-0.148 0.004-0.295 0.008-0.443 0.012-0.306 0.008-0.611 0.017-0.917 0.026-0.391 0.011-0.781 0.022-1.172 0.032-0.303 0.008-0.607 0.017-0.91 0.025-0.144 0.004-0.288 0.008-0.432 0.012-0.201 0.005-0.401 0.011-0.602 0.017-0.059 0.002-0.117 0.003-0.177 0.005-0.351 0.011-0.694 0.039-1.043 0.082 0.013 0.041 0.026 0.081 0.040 0.123 0.031 0.097 0.063 0.194 0.094 0.292 0.018 0.049 0.035 0.097 0.053 0.147 0.021 0.063 0.021 0.063 0.043 0.128 0.12 0.179 0.236 0.181 0.444 0.222 0.073 0.015 0.147 0.030 0.223 0.045 0.075 0.014 0.15 0.028 0.228 0.042 0.067 0.013 0.134 0.026 0.203 0.039 0.209 0.040 0.418 0.077 0.627 0.114 0.118 0.021 0.118 0.021 0.238 0.043 0.212 0.038 0.425 0.076 0.637 0.113 0.223 0.040 0.446 0.080 0.67 0.119 0.374 0.067 0.748 0.133 1.122 0.2 0.432 0.077 0.864 0.154 1.297 0.231 0.417 0.074 0.834 0.149 1.251 0.223 0.177 0.032 0.354 0.063 0.531 0.095 0.247 0.044 0.493 0.088 0.74 0.131 0.073 0.013 0.147 0.026 0.223 0.040 0.067 0.012 0.134 0.024 0.203 0.036 0.058 0.010 0.116 0.021 0.176 0.031 0.153 0.027 0.153 0.027 0.334 0.022-0.045-0.573-0.149-1.132-0.254-1.695-0.018-0.096-0.036-0.193-0.053-0.29-0.043-0.234-0.087-0.468-0.13-0.703-1.081-0.005-2.16 0.008-3.24 0.039z"></path>
<path d="M19.938 22.75c0.207 0.133 0.207 0.133 0.313 0.313 0.051 0.244 0.020 0.34-0.105 0.555-0.324 0.208-0.646 0.192-1.020 0.133-0.207-0.133-0.207-0.133-0.313-0.313-0.051-0.244-0.020-0.34 0.105-0.555 0.324-0.208 0.646-0.192 1.020-0.133z"></path>
<path d="M3.832 17.168c0.071-0.002 0.141-0.005 0.214-0.007 0.246 0.032 0.346 0.098 0.516 0.277 0.042 0.125 0.042 0.125 0.039 0.25 0.001 0.041 0.002 0.082 0.002 0.125-0.066 0.199-0.179 0.267-0.354 0.375-0.199 0.031-0.199 0.031-0.41 0.027-0.070-0-0.139-0-0.211-0-0.208-0.029-0.295-0.066-0.441-0.215-0.069-0.248-0.088-0.381 0.020-0.617 0.182-0.23 0.342-0.209 0.625-0.215z"></path>
<path d="M9.594 16.527c0.082-0 0.164-0 0.248-0 0.221 0.035 0.221 0.035 0.373 0.149 0.142 0.198 0.127 0.336 0.097 0.574-0.11 0.199-0.156 0.24-0.375 0.313-0.312 0.025-0.594 0.041-0.883-0.086-0.155-0.134-0.176-0.197-0.199-0.402 0.046-0.466 0.309-0.554 0.738-0.547z"></path>
<path d="M23.625 13.063c0.215 0.125 0.215 0.125 0.313 0.313 0.021 0.182 0.016 0.334-0.063 0.5-0.285 0.222-0.537 0.223-0.886 0.213-0.177-0.026-0.177-0.026-0.38-0.155-0.137-0.231-0.153-0.357-0.109-0.621 0.278-0.378 0.699-0.307 1.125-0.25z"></path>
<path d="M9 20.563c0.195 0.086 0.281 0.124 0.375 0.313 0.036 0.387 0.036 0.387-0.097 0.574-0.211 0.156-0.361 0.148-0.622 0.148-0.123 0.002-0.123 0.002-0.248 0.004-0.221-0.039-0.221-0.039-0.375-0.184-0.095-0.168-0.095-0.168-0.092-0.395 0.056-0.201 0.081-0.279 0.246-0.398 0.245-0.122 0.545-0.085 0.813-0.063z"></path>
<path d="M17.371 21.477c0.077-0.002 0.153-0.004 0.232-0.005 0.209 0.029 0.209 0.029 0.36 0.14 0.104 0.146 0.135 0.212 0.135 0.389 0.001 0.041 0.003 0.082 0.004 0.125-0.063 0.2-0.177 0.267-0.352 0.375-0.199 0.033-0.199 0.033-0.41 0.031-0.070 0.001-0.139 0.001-0.211 0.002-0.228-0.040-0.3-0.103-0.441-0.283-0.068-0.19-0.070-0.285-0.016-0.48 0.164-0.304 0.383-0.29 0.699-0.293z"></path>
<path d="M10.84 18.473c0.124-0.002 0.124-0.002 0.25-0.004 0.223 0.031 0.223 0.031 0.376 0.144 0.142 0.2 0.132 0.335 0.097 0.574-0.139 0.182-0.22 0.24-0.438 0.313-0.337 0.033-0.603 0.035-0.875-0.188-0.125-0.188-0.125-0.188-0.113-0.406 0.098-0.422 0.301-0.438 0.703-0.434z"></path>
<path d="M7.965 9.223c0.124-0.002 0.124-0.002 0.25-0.004 0.223 0.031 0.223 0.031 0.376 0.144 0.142 0.2 0.132 0.335 0.097 0.574-0.098 0.136-0.098 0.136-0.25 0.25-0.221 0.035-0.221 0.035-0.469 0.035-0.123 0.002-0.123 0.002-0.248 0.004-0.221-0.039-0.221-0.039-0.375-0.184-0.095-0.168-0.095-0.168-0.092-0.395 0.114-0.412 0.311-0.43 0.711-0.426z"></path>
</symbol>
</defs>
</svg>